<svg width="52" height="52" viewBox="0 0 52 52" fill="none" xmlns="http://www.w3.org/2000/svg">
<g clip-path="url(#clip0_2376_1532)">
<path d="M51.74 0H0V51.74H51.74V0Z" fill="#FBB03B"/>
<path d="M41.0658 6.56857L7.02585 41.5359C6.45955 42.1177 6.47208 43.0483 7.05381 43.6146L8.43674 44.9609C9.01847 45.5272 9.94912 45.5147 10.5154 44.933L44.5553 9.96558C45.1217 9.38385 45.1091 8.4532 44.5274 7.8869L43.1445 6.54065C42.5627 5.97435 41.6321 5.98683 41.0658 6.56857Z" fill="white"/>
<path d="M45.1813 41.066L10.2139 7.0261C9.63221 6.45979 8.70156 6.47232 8.13526 7.05406L6.78901 8.43698C6.22271 9.01872 6.23519 9.94937 6.81693 10.5157L41.7843 44.5556C42.366 45.1219 43.2967 45.1094 43.863 44.5276L45.2092 43.1447C45.7755 42.563 45.763 41.6323 45.1813 41.066Z" fill="white"/>
</g>
<defs>
<clipPath id="clip0_2376_1532">
<rect width="51.74" height="51.74" fill="white"/>
</clipPath>
</defs>
</svg>
