<svg width="52" height="52" viewBox="0 0 52 52" fill="none" xmlns="http://www.w3.org/2000/svg">
<g clip-path="url(#clip0_2375_1528)">
<path d="M51.74 0H0V51.74H51.74V0Z" fill="#FBB03B"/>
<path d="M23.4399 1.46997L23.4399 50.27C23.4399 51.0819 24.0981 51.74 24.9099 51.74H26.8399C27.6518 51.74 28.3099 51.0819 28.3099 50.27L28.3099 1.46997C28.3099 0.658112 27.6518 0 26.8399 0H24.9099C24.0981 0 23.4399 0.658112 23.4399 1.46997Z" fill="#262626"/>
<path d="M50.27 23.4399H1.47C0.658141 23.4399 0 24.0981 0 24.9099V26.8399C0 27.6518 0.658141 28.3099 1.47 28.3099H50.27C51.0819 28.3099 51.74 27.6518 51.74 26.8399V24.9099C51.74 24.0981 51.0819 23.4399 50.27 23.4399Z" fill="#262626"/>
</g>
<defs>
<clipPath id="clip0_2375_1528">
<rect width="51.74" height="51.74" fill="white"/>
</clipPath>
</defs>
</svg>
