<svg xmlns="http://www.w3.org/2000/svg" viewBox="0 0 741.27 713.71" id="claw" fill="currentColor">
    <path
        d="M815.9,296.1c9.63-5.2,17.15-8.36,23.94-13.27,4.15-3,7.95-8.24,10.54-13.33,3.52-6.92,8.45-9.85,13.47-14.4,20.9-18.95,50-17.42,66.18-47.91,2.09-3.94,9.16-4.4,13.81-6.89,2.41-1.28,5.92-3,6.64-5.3,3.19-10,9.4-11.79,16.61-14.19,5.68-1.9,12.67-5.69,16.14-11.14,5-7.89,10.48-13.53,16.68-17.57s11.21-5.42,17.36-7.18a192.78,192.78,0,0,0,38-15.61c-1,1-2.56,2.45-4.45,4.29-23.5,22.75-34.57,27.86-46.53,46.46-4.66,7.25-12.94,11.27-19.34,17.16-11.55,10.61-23.6,20.64-34.19,32.58-9.23,10.4-17.94,20.4-30.11,24.36-10.59,3.45-17,12.94-22.53,24.29-4.31,8.86-6.82,21.56-18.9,19.88-.92-.13-3.35,2.87-3.7,4.59C873,315.28,865.1,318.24,856.94,320c-11.71,2.51-20.74,10.45-28.18,21.95-8.32,12.86-17.87,22.26-30.86,27.62-6.76,2.8-12.4,11.79-18.75,17.63-4.36,4-9.07,7.48-15.06,12.35a50.73,50.73,0,0,1-23,24.2l-6.2,1.15c-4.72,4.58-8.92,11.14-13.79,12.95-18.47,6.86-32.71,20.58-45.37,38.61-7.35,10.48-7.92,9.93-12,7.26-8,5-14.33,8.38-20.16,12.91-6.14,4.76-12.89,9.63-17.33,16.3-5.91,8.88-10.59,18-20.58,20.56-2.82.71-5.31,5.2-8.25,7.07-4.42,2.81-9.12,4.83-15.94,8.33-.91,6.94-6,12.76-15.46,14.47-3,.55-7.1,5.93-8.75,10-4.7,11.49-12.31,17.15-21.4,18.28-23,2.83-39.08,19.22-52.47,42-6.81,11.6-15.41,18-26.93,17.72-12.52-.31-24.08,6.11-32.82,18.56-16.66,23.73-37.26,36.51-60.52,44.76-14.89,5.29-29.4,13.58-45.15,18.41,1.55-2,2.87-4.39,4.66-5.9,23-19.47,46.49-38.06,69-58.4C412,650.48,431,629.86,451,611c9.61-9,15.31-25.87,29.74-25.68,4.6-14.2,17.08-9.85,24-17.67,8.55-9.73,16-20.9,23.94-31.43,5.42-7.2,6.57-20.63,18-19,5-17.13,18.29-9,26.42-16.37,6.72-6.08,13.83-12,19.45-19.42,12.53-16.57,26-29.61,43.84-35.63,6.39-2.15,12.1-10.72,18-16.49,8.37-8.14,16.52-16.63,25-24.56,13.92-13,28.31-25.3,42-38.74,8.29-8.15,14.84-18.81,26.66-19.1,3-.07,7.61-6.06,9.71-10.37,4.63-9.52,10.54-14.59,19-14.83,11.18-.31,18.06-10.08,25.15-19.5C807,295.47,812.27,289.64,815.9,296.1Z"
        transform="translate(-313.99 -27.39)" />
    <path
        d="M918,39.86C884.76,74.39,863.36,124.25,823.2,151c-8.94,6-15.65,17.83-23.78,26.41-10.36,10.92-21.11,21.28-31.71,31.87-2.66,2.66-6.08,4.75-7.91,8C753,229.4,746,237.63,733,242.07c-8.27,2.83-17.23,13.26-27.2,16.9-1.16.43-2.48,2.46-3.07,4-11.14,29.24-34.53,41.11-55,51.42-14.53,7.33-25.35,15-35.82,29.11C603.3,355.17,592,364,581.75,374c-2.08,2-4.5,4.76-6.74,5.11-20,3.14-32.53,24.47-49.22,35.72-16.94,11.41-32.39,26.84-49.25,38.52-47.51,32.93-86.26,59.81-116.12,77.83-19,11.46-35,20.56-46.31,26.83a2.69,2.69,0,0,1-.09-1.19,3.62,3.62,0,0,1,1.5-2.2c28.53-21.76,53-48.44,77.86-74.33,20.4-21.25,44.69-36.85,64.05-60.74,3.85-4.76,9.7-7.42,14.83-10.36,16.55-9.52,30.57-23.13,41.87-40.9,9.51-15,21.3-25,35.16-32.78,10.15-5.71,19.38-14.68,29-22.16,6.36-4.92,12.76-9.78,19.14-14.66,1.27-1,2.87-1.63,3.75-2.95,5.11-7.64,9.63-15.9,15.25-22.93,2.1-2.63,6.65-3.27,10-3.51,10.59-.75,16-6.78,17.75-20,2-14.78,8.71-26.51,21.7-31.4q24.06-9,43.13-30.55c2.26-2.53,4.65-5.23,7.29-6.86,28.24-17.4,55.4-36.89,79.12-63.9,3.35-3.82,8.93-4.58,13.35-7.15,5.07-3,11.09-5.11,14.79-9.79,10.41-13.2,23.07-19.26,36-26.07C879.27,63.22,898.55,51.19,918,39.86Z"
        transform="translate(-313.99 -27.39)" />
    <path
        d="M517,736.76a419.54,419.54,0,0,0,56.61-57.37c18.8-23.24,28.22-36.26,28.22-36.26,14.25-16.6,28.94-32.71,44.09-48,4.06-4.11,10.42-4.79,15.76-6.77,7.35-2.72,11-8.88,16.08-16.33,8-11.77,16.3-28.18,30.25-29.69,20.74-2.25,31.81-20.46,44.13-37.71,2.89-4,6.71-9.64,10.14-10.3C785.69,489.8,802,467.8,821.18,453c7.4-5.71,15.08-10.79,22.48-16.49,8.64-6.65,17.11-13.65,25.65-20.51,3.17-2.56,6.16-5.75,9.53-7.62,19.51-10.85,39.34-20.65,58.6-32.29,11.95-7.23,23.08-17.1,34.59-25.75a69.91,69.91,0,0,1,6.44-4.67,61.73,61.73,0,0,1,10.4-5.25l-5.29,6.44L954.36,379c-8.2,9-16.31,18.2-24.63,27.07-5.1,5.44-10.55,10.36-15.77,15.64-2.55,2.58-4.89,5.46-7.38,8.15-3,3.25-6,6.45-9.09,9.65-.27.28-.74.24-1,.5-16.36,14.78-33,29.06-48.86,44.7-4.57,4.51-12.62,8.12-11.81,18.45,0,.52-5.07,3.14-7.81,3.73-10.4,2.27-20,6-27.42,17.47-2.2,3.39-6.26,5.12-9.46,7.66-4.23,3.36-10.73,3.21-10.94,12.94,0,1.94-7.48,4.7-11.33,7.52,0,0-11.25,6.21-19.34,14.91l-.11.12c-1.69,2,.31,5,.13,10,0,.69-.09,1.27-.15,1.7s-.45.8-.82,1.4c-8.24,13.43-19.24,13.68-34.86,23.72s-24.74,23.75-29.41,28.37c-1.16,1.15-1.79,3.3-3,4.2Q659,653.29,636.7,669.41c-10.41,7.5-20.91,14.78-31.36,22.18-.65.46-1.18,1.3-1.84,1.67q-42,23.1-84.1,46.13c-.74.32-5.34,2.34-5.86,1.51S516.18,737.42,517,736.76Z"
        transform="translate(-313.99 -27.39)" />
    <path
        d="M376.4,349.39c4.52-5.48,8.62-11.72,13.66-16.29,11-10,22.55-19.07,33.8-28.64,19.15-16.3,39.08-31.38,57.19-49.33,29.88-29.64,59.48-60,87.34-92.45,11.43-13.31,26.16-11.37,36.47-24.26,3.42-4.27,8.8-7.1,11-11.83,9.2-19.89,25.11-27.89,39.93-37.25,18.32-11.57,37.05-22,55.85-32a381.19,381.19,0,0,1,38.88-17.92c12.38-5.1,23.31-9,32.14-12l-5.36,4.16C764.23,43.13,751,54.37,738.16,66.38,727.26,76.61,715,86.07,706.67,98.8c-14.94,22.75-35.19,35.33-53.32,52-9.45,8.69-18.61,18-28.35,26.08-29.68,24.7-58.93,50.52-89.57,72.94C503,273.53,469.29,294.12,436,315.51c-19.32,12.4-39,23.7-58.56,35.5Z"
        transform="translate(-313.99 -27.39)" />
</svg>