<svg width="33" height="33" viewBox="0 0 33 33" fill="none" xmlns="http://www.w3.org/2000/svg">
<g clip-path="url(#clip0_2359_1430)">
<path d="M29.0068 0.431695L1.04781 28.3907C0.473743 28.9648 0.473675 29.8956 1.04775 30.4697L1.79728 31.2192C2.37135 31.7933 3.30217 31.7932 3.87624 31.2192L31.8353 3.26012C32.4093 2.68605 32.4093 1.75532 31.8352 1.18125L31.0857 0.431714C30.5116 -0.142357 29.5809 -0.142376 29.0068 0.431695Z" fill="white"/>
<path d="M31.2187 29.0139L3.25964 1.05487C2.68557 0.480797 1.75484 0.480819 1.18077 1.05489L0.431236 1.80442C-0.142835 2.37849 -0.142857 3.30922 0.431214 3.8833L28.3902 31.8423C28.9643 32.4164 29.895 32.4164 30.4691 31.8423L31.2186 31.0928C31.7927 30.5187 31.7927 29.588 31.2187 29.0139Z" fill="white"/>
</g>
<defs>
<clipPath id="clip0_2359_1430">
<rect width="32.26" height="32.26" fill="white"/>
</clipPath>
</defs>
</svg>
