<svg viewBox="0 0 301 176" fill="none" xmlns="http://www.w3.org/2000/svg">
<g clip-path="url(#clip0_2359_1398)">
<g opacity="1">
<path d="M81.95 56.5601C83.2949 55.2531 84.5573 53.8636 85.7299 52.4C86.3609 51.4037 86.7639 50.2802 86.91 49.1099C87.2018 47.7795 87.7708 46.5259 88.58 45.4302C91.39 40.3602 97.15 38.7501 98.29 31.7501C98.44 30.8501 99.78 30.2901 100.52 29.5001C100.91 29.0901 101.52 28.4998 101.46 28.0298C101.46 25.8798 102.52 25.1202 103.76 24.1802C104.886 23.3896 105.728 22.2565 106.16 20.9498C106.454 19.4905 107.051 18.1094 107.913 16.8951C108.774 15.6808 109.88 14.6604 111.16 13.9C113.16 12.64 114.88 10.5498 116.79 8.75983C116.868 8.99665 116.918 9.24155 116.94 9.48981C113.86 12.6498 112.14 16.8399 110.94 21.5899C110.51 23.2999 109.17 24.59 108.31 26.19C106.662 28.9734 105.16 31.8404 103.81 34.7798C102.7 37.4098 101.66 39.9301 99.5599 41.5001C97.7299 42.8701 97.1 45.14 96.78 47.71C96.52 49.71 96.87 52.3499 94.41 52.8199C94.22 52.8199 93.9499 53.6 93.9899 53.96C94.3199 56.53 92.99 57.6201 91.5099 58.5001C89.3899 59.7601 88.16 61.9002 87.5099 64.6202C86.9285 67.4675 85.4662 70.0596 83.33 72.0298C82.2 73.0298 81.69 75.14 80.85 76.69C80.26 77.76 79.5699 78.7401 78.7299 80.0801C79.7299 83.0801 76.03 84.1601 75.84 87.0801L74.72 86.8902C74.11 88.0902 73.72 89.6401 72.89 90.3101C69.76 92.8601 67.8899 96.4701 66.6199 100.81C65.8799 103.33 65.7299 103.26 64.7599 103.01C63.5499 104.51 62.5299 105.58 61.6899 106.85C60.6984 108.153 59.925 109.609 59.4 111.16C58.83 113.28 58.5299 115.36 56.7499 116.51C56.2499 116.84 56.0599 117.87 55.6099 118.43C54.9299 119.27 54.1499 119.97 53.0599 121.1C53.1961 121.87 53.0738 122.663 52.712 123.356C52.3503 124.048 51.7693 124.602 51.0599 124.93C50.4057 125.608 50.0309 126.508 50.0099 127.45C49.8599 130 48.75 131.6 47.0099 132.45C42.7299 134.52 40.68 138.77 39.58 144.09C39.02 146.79 37.7699 148.6 35.5099 149.31C33.0599 150.07 31.23 152.08 30.35 155.08C28.8679 160.157 25.7715 164.612 21.53 167.77C18.98 169.77 16.71 172.34 13.96 174.32C14.0847 173.82 14.2589 173.335 14.4799 172.87C17.6699 167.57 21.0099 162.4 24.0499 156.97C26.7899 152.06 29.13 146.8 31.79 141.82C33.06 139.43 33.0599 135.82 35.8799 134.82C35.8799 131.75 38.5499 131.82 39.3699 129.82C40.3699 127.37 41.11 124.71 41.96 122.13C42.54 120.38 41.88 117.69 44.22 117.25C44.07 113.58 47.22 114.25 48.27 112.32C49.2629 110.719 50.1033 109.028 50.78 107.27C52.12 103.22 53.87 99.7998 56.96 97.4498C58.06 96.6098 58.5999 94.5701 59.3799 93.0601C60.4699 90.9201 61.4899 88.7399 62.6199 86.6299C64.4699 83.1799 66.4599 79.8499 68.2299 76.3399C69.3099 74.2099 69.88 71.7002 72.16 70.8702C72.73 70.6602 73.2399 69.19 73.3599 68.21C73.6399 66.05 74.45 64.6801 76.08 64.0801C78.24 63.2801 78.9299 60.9299 79.6899 58.6299C80.1799 57.0199 80.82 55.5401 81.95 56.5601Z" fill="white"/>
<path d="M84.93 6.10352e-05C80.74 8.91006 79.86 19.9999 73.82 27.8599C72.47 29.5999 71.95 32.3501 70.93 34.5601C69.64 37.3601 68.23 40.0899 66.86 42.8399C66.4375 43.4867 66.1013 44.1861 65.86 44.92C65.33 47.73 64.5301 49.7898 62.2901 51.5098C60.8701 52.5998 59.81 55.2199 58.12 56.5899C57.8924 56.8727 57.772 57.2269 57.7801 57.5899C57.5401 64.0099 53.78 67.86 50.48 71.21C48.146 73.4057 46.4083 76.1585 45.43 79.21C44.51 82.05 42.89 84.5199 41.56 87.1299C41.29 87.6599 41 88.3499 40.56 88.5699C36.87 90.4999 35.8401 95.4701 33.3401 98.7501C30.8401 102.03 28.8101 106.11 26.3401 109.49C20.6201 117.2 14.76 124.76 8.88004 132.27C6.66004 135.11 4.22004 137.66 1.76004 140.47C1.76004 140.05 1.65004 139.85 1.70004 139.79C5.86004 133.88 8.77003 126.97 11.94 120.2C14.51 114.73 18.2 110.09 20.39 104.2C20.9378 103.073 21.6868 102.057 22.6001 101.2C25.265 98.1304 27.1334 94.4522 28.0401 90.4898C28.8345 87.2418 30.4454 84.2507 32.7201 81.7999C34.2625 79.8285 35.6627 77.7502 36.9101 75.5801C37.8201 74.2001 38.75 72.8398 39.67 71.4698C39.8903 71.2272 40.0693 70.9504 40.2 70.65C40.69 68.83 41.0301 66.92 41.6601 65.19C41.8901 64.53 42.74 64.1099 43.37 63.8399C45.37 62.9999 46.02 61.4701 45.5 58.7901C44.92 55.7901 45.4501 53.0598 47.6501 51.2598C50.4705 48.9021 52.6625 45.882 54.0301 42.4698C54.2754 41.8219 54.6122 41.2128 55.0301 40.6602C59.6281 35.382 63.3947 29.4335 66.2 23.0201C66.6 22.0201 67.64 21.5501 68.33 20.7501C69.246 19.941 70.0023 18.9674 70.56 17.8799C71.71 14.6199 73.7801 12.6102 75.8401 10.4302C78.9401 7.10024 81.89 3.49006 84.93 6.10352e-05Z" fill="white"/>
<path d="M52.9199 161.56C55.3199 156.74 57.8399 152 60.0699 147.05C61.3299 144.25 62.0099 141.05 63.1699 138.14C64.8499 133.98 66.64 129.88 68.58 125.9C69.1 124.83 70.29 124.28 71.2 123.54C72.45 122.54 72.76 121.09 73.2 119.31C73.97 116.5 74.5099 112.75 77.1299 111.54C81.0099 109.74 81.9699 105.47 83.2299 101.3C83.5199 100.3 83.89 98.9899 84.52 98.6299C88.78 96.2099 90.5199 90.8598 93.2599 86.7198C94.3299 85.1198 95.4799 83.6298 96.5499 82.0298C97.7899 80.1698 98.9799 78.2502 100.18 76.3502C100.573 75.6131 101.028 74.9105 101.54 74.2501C104.62 70.8501 107.83 67.6399 110.8 64.1099C112.65 61.9099 114.17 59.2599 115.8 56.8199C116.25 56.1599 116.72 55.5299 117.18 54.8799L117.81 55.3902C116.62 58.1102 115.44 60.8399 114.25 63.5699C113.25 65.8599 112.25 68.1798 111.25 70.4498C110.62 71.8498 109.88 73.1598 109.25 74.5298C108.92 75.1998 108.65 75.9202 108.35 76.6002C108.05 77.2802 107.6 78.2601 107.22 79.0801C107.22 79.1501 107.09 79.1701 107.05 79.2501C104.84 83.2001 102.54 87.07 100.49 91.15C99.8999 92.33 98.57 93.5601 99.41 95.5201C99.0742 96.0145 98.6423 96.436 98.14 96.7598C97.1128 97.28 96.208 98.0127 95.4857 98.9092C94.7633 99.8058 94.2398 100.846 93.95 101.96C93.6238 102.731 93.1746 103.443 92.6199 104.07C92.0199 105.01 90.74 105.41 91.34 107.31C91.46 107.69 90.2 108.72 89.64 109.52C88.64 110.88 87.79 112.29 86.79 113.8L88.33 116.04C86.2057 118.33 84.203 120.73 82.33 123.23C80.8961 125.631 79.6201 128.123 78.5099 130.69C78.3599 130.99 78.38 131.45 78.2 131.69C76.04 134.797 73.8666 137.883 71.6799 140.95C70.1499 143.1 68.59 145.2 67.04 147.33C66.95 147.46 66.8999 147.66 66.7999 147.78L53.5099 162.29L52.9199 161.56Z" fill="white"/>
<path d="M0 95.8702C0.431168 94.4783 0.959139 93.118 1.58002 91.7999C3.06002 89.1299 4.71002 86.6101 6.27002 84.0001C8.92002 79.5701 11.8 75.3302 14.14 70.6402C18 62.9102 21.75 55.0502 25.03 46.9102C26.38 43.5702 29.37 42.9801 30.53 39.7901C30.91 38.7401 31.77 37.7901 31.89 36.7901C32.37 32.3201 34.89 29.71 37.2 26.92C40 23.46 42.95 20.1998 45.95 17.0098C47.95 14.8498 50.18 12.95 52.33 10.96C53.73 9.67002 55.16 8.45 56.57 7.19L57.02 7.68024C55.24 10.7902 53.41 13.8498 51.71 17.0298C50.26 19.7298 48.5 22.38 47.71 25.4C46.3 30.81 43.19 34.5898 40.71 39.0298C39.45 41.3398 38.28 43.7498 36.92 45.9698C32.77 52.7198 28.79 59.6699 24.3 66.0499C19.56 72.7899 14.36 79.0499 9.29999 85.3799C6.35999 89.0599 3.3 92.5499 0.25 96.1299L0 95.8702Z" fill="white"/>
</g>
<g opacity="1">
<path d="M264.51 57.3101C265.862 56.0077 267.128 54.6179 268.3 53.15C268.929 52.1574 269.329 51.037 269.47 49.8702C269.766 48.5381 270.334 47.2819 271.14 46.1802C273.96 41.1202 279.71 39.4998 280.85 32.5098C281 31.5998 282.34 31.0498 283.09 30.2598C283.47 29.8498 284.09 29.2601 284.03 28.7901C284.03 26.6301 285.03 25.8802 286.32 24.9302C287.444 24.1392 288.287 23.0115 288.73 21.71C289.02 20.248 289.616 18.8635 290.477 17.647C291.339 16.4306 292.447 15.4095 293.73 14.65C295.73 13.39 297.45 11.3001 299.36 9.52008C299.45 9.95008 299.54 10.1998 299.5 10.2398C296.42 13.4098 294.7 17.5899 293.5 22.3399C293.07 24.0599 291.72 25.3398 290.86 26.9498C289.32 29.7798 287.64 32.5201 286.36 35.5401C285.25 38.1701 284.22 40.6898 282.11 42.2598C280.28 43.6298 279.66 45.8998 279.33 48.4698C279.07 50.4698 279.42 53.1101 276.96 53.5801C276.78 53.5801 276.5 54.36 276.55 54.71C276.87 57.28 275.55 58.3801 274.06 59.2501C271.95 60.5101 270.71 62.6499 270.06 65.3799C269.485 68.2269 268.021 70.8178 265.88 72.7798C264.75 73.7798 264.25 75.8898 263.4 77.4498C262.82 78.5198 262.13 79.4999 261.28 80.8399C262.28 83.8399 258.58 84.9102 258.39 87.8902L257.28 87.69C256.66 88.89 256.28 90.4502 255.45 91.1202C252.31 93.6702 250.45 97.2699 249.17 101.61C248.43 104.14 248.28 104.07 247.32 103.81C246.1 105.32 245.08 106.39 244.25 107.65C243.255 108.953 242.478 110.408 241.95 111.96C241.38 114.08 241.08 116.17 239.3 117.32C238.8 117.64 238.61 118.68 238.16 119.23C237.49 120.07 236.71 120.77 235.61 121.91C235.746 122.68 235.623 123.473 235.262 124.166C234.9 124.858 234.319 125.412 233.61 125.74C232.972 126.425 232.615 127.324 232.61 128.26C232.638 129.292 232.371 130.312 231.839 131.198C231.308 132.084 230.534 132.799 229.61 133.26C225.32 135.33 223.27 139.57 222.17 144.89C221.61 147.6 220.36 149.41 218.11 150.11C216.83 150.555 215.684 151.318 214.78 152.327C213.875 153.336 213.242 154.559 212.94 155.88C211.464 160.959 208.366 165.416 204.12 168.57C201.58 170.57 199.3 173.15 196.56 175.13C196.686 174.629 196.856 174.14 197.07 173.67C200.26 168.37 203.61 163.21 206.65 157.77C209.38 152.87 211.72 147.61 214.38 142.63C215.66 140.24 215.65 136.63 218.47 135.63C218.47 132.57 221.15 132.63 221.97 130.63C222.97 128.17 223.7 125.51 224.55 122.94C225.13 121.18 224.47 118.49 226.81 118.05C226.66 114.39 229.81 115.05 230.87 113.13C231.859 111.525 232.696 109.831 233.37 108.07C234.72 104.07 236.47 100.6 239.55 98.2598C240.65 97.4198 241.2 95.3799 241.97 93.8599C243.06 91.7299 244.09 89.54 245.21 87.44C247.06 83.99 249.05 80.6602 250.82 77.1402C251.9 75.0102 252.47 72.51 254.75 71.67C255.32 71.46 255.83 69.9901 255.95 69.0201C256.23 66.8601 257.04 65.4899 258.68 64.8799C260.83 64.0799 261.52 61.7302 262.28 59.4302C262.73 57.7802 263.36 56.3001 264.51 57.3101Z" fill="white"/>
<path d="M267.51 0.759827C263.32 9.65983 262.45 20.7599 256.4 28.6099C255.05 30.3599 254.53 33.1101 253.51 35.3101C252.22 38.1201 250.81 40.8402 249.45 43.6002C249.026 44.2427 248.69 44.9386 248.45 45.67C247.93 48.49 247.12 50.5398 244.88 52.2598C243.46 53.3598 242.41 55.9799 240.71 57.3399C240.486 57.6241 240.369 57.9781 240.38 58.3399C240.14 64.7599 236.38 68.61 233.07 71.96C230.761 74.1667 229.041 76.9172 228.07 79.96C227.15 82.79 225.53 85.2602 224.21 87.8702C223.93 88.4102 223.64 89.1001 223.21 89.3101C219.52 91.2401 218.49 96.2101 215.99 99.5001C213.49 102.79 211.46 106.85 208.99 110.23C203.27 117.95 197.42 125.5 191.54 133.02C189.31 135.85 186.87 138.41 184.41 141.22C184.41 140.79 184.3 140.6 184.35 140.53C188.51 134.63 191.42 127.72 194.59 120.95C197.16 115.47 200.86 110.84 203.05 104.95C203.591 103.822 204.337 102.805 205.25 101.95C207.914 98.8785 209.785 95.2014 210.7 91.2398C211.491 87.9904 213.102 84.9983 215.38 82.5499C216.919 80.5761 218.319 78.4981 219.57 76.3301C220.483 74.9501 221.4 73.5767 222.32 72.21C222.542 71.9666 222.724 71.6901 222.86 71.3902C223.35 69.5702 223.68 67.6702 224.31 65.9302C224.55 65.2802 225.39 64.8599 226.02 64.5899C228.02 63.7499 228.68 62.2201 228.16 59.5401C227.57 56.5401 228.1 53.8101 230.31 52.0001C233.124 49.6429 235.312 46.6265 236.68 43.2198C236.931 42.5717 237.268 41.9599 237.68 41.4C242.279 36.1243 246.049 30.1798 248.86 23.7701C249.26 22.7701 250.29 22.2901 250.98 21.5001C251.893 20.6847 252.649 19.7086 253.21 18.6202C254.37 15.3702 256.43 13.3602 258.49 11.1802C261.51 7.85024 264.44 4.23983 267.51 0.759827Z" fill="white"/>
<path d="M235.51 162.32C237.91 157.49 240.43 152.75 242.66 147.81C243.93 145.01 244.6 141.81 245.76 138.9C247.44 134.73 249.24 130.63 251.17 126.65C251.69 125.59 252.88 125.03 253.79 124.3C255.04 123.3 255.35 121.84 255.79 120.06C256.57 117.25 257.11 113.51 259.72 112.3C263.61 110.49 264.56 106.22 265.82 102.06C266.11 101.06 266.49 99.7402 267.11 99.3902C271.38 96.9702 273.11 91.6198 275.86 87.4698C276.92 85.8798 278.08 84.3801 279.14 82.7901C280.38 80.9301 281.57 79.0099 282.78 77.1099C283.173 76.3721 283.625 75.6667 284.13 75.0001C287.21 71.6101 290.42 68.3899 293.4 64.8599C295.25 62.6699 296.76 60.0201 298.4 57.5801C298.85 56.9201 299.32 56.2802 299.78 55.6402L300.42 56.1402L296.85 64.3199C295.85 66.6199 294.85 68.94 293.85 71.21C293.21 72.6 292.48 73.9201 291.85 75.2901C291.52 75.9601 291.26 76.6699 290.95 77.3599C290.64 78.0499 290.2 79.0101 289.82 79.8301C289.82 79.9101 289.69 79.9301 289.65 80.0001C287.44 83.9501 285.14 87.8302 283.09 91.9102C282.5 93.0902 281.17 94.3198 282.01 96.2798C281.671 96.772 281.24 97.1935 280.74 97.5201C279.706 98.0294 278.794 98.7542 278.064 99.6461C277.334 100.538 276.804 101.576 276.51 102.69C276.178 103.46 275.725 104.172 275.17 104.8C274.57 105.73 273.3 106.13 273.9 108.04C274.02 108.42 272.75 109.44 272.19 110.25C271.19 111.6 270.34 113.02 269.34 114.52L270.88 116.76C268.752 119.047 266.75 121.447 264.88 123.95C263.433 126.35 262.143 128.842 261.02 131.41C260.87 131.71 260.89 132.17 260.72 132.41C258.56 135.51 256.386 138.597 254.2 141.67C252.66 143.81 251.1 145.92 249.56 148.05C249.46 148.18 249.41 148.38 249.31 148.49L235.99 163L235.51 162.32Z" fill="white"/>
<path d="M182.51 96.6202C182.947 95.2305 183.475 93.8706 184.09 92.5499C185.58 89.8799 187.22 87.3598 188.78 84.7598C191.43 80.3298 194.31 76.08 196.65 71.4C200.51 63.67 204.27 55.81 207.55 47.67C208.89 44.33 211.89 43.7299 213.04 40.5499C213.43 39.4899 214.29 38.5499 214.4 37.5499C214.88 33.0699 217.45 30.47 219.71 27.67C222.51 24.21 225.47 20.9501 228.46 17.7701C230.46 15.6001 232.7 13.6998 234.84 11.7198C236.24 10.4298 237.67 9.19977 239.08 7.94977L239.54 8.43024C237.76 11.5402 235.92 14.5998 234.22 17.7798C232.77 20.4898 231.02 23.1302 230.22 26.1602C228.81 31.5702 225.7 35.3498 223.28 39.7798C222.01 42.0998 220.84 44.4998 219.48 46.7198C215.34 53.4798 211.35 60.4299 206.87 66.7999C202.13 73.5499 196.92 79.7999 191.87 86.1299C188.93 89.8099 185.87 93.3102 182.87 96.8902L182.51 96.6202Z" fill="white"/>
</g>
<path fill-rule="evenodd" clip-rule="evenodd" d="M102.92 67.69H200.56V72.5699H102.92V67.69ZM181.03 77.4498H190.8V121.39H181.03V77.4498ZM166.38 77.4498H176.15V121.39H166.38V77.4498ZM141.97 77.4498H161.51V121.39H141.97V77.4498ZM127.33 77.4498H137.09V121.39H127.33V77.4498ZM112.68 77.4498H122.44V121.39H112.68V77.4498ZM196.36 126.28L199.61 136.04H103.86L107.12 126.28H196.36ZM151.74 38.69L193.81 62.69H109.66L151.74 38.69ZM203 77.3799C203.32 77.3799 203.638 77.317 203.934 77.1944C204.23 77.0718 204.499 76.8917 204.725 76.6651C204.952 76.4385 205.132 76.1696 205.254 75.8736C205.377 75.5776 205.44 75.2604 205.44 74.94V65.1802C205.436 64.7535 205.318 64.3356 205.099 63.9698C204.879 63.604 204.565 63.3037 204.19 63.1002L152.93 33.8101C152.576 33.5749 152.16 33.4493 151.735 33.4493C151.31 33.4493 150.894 33.5749 150.54 33.8101L99.28 63.1002C98.905 63.3037 98.5912 63.604 98.3714 63.9698C98.1516 64.3356 98.0337 64.7535 98.03 65.1802V74.94C98.03 75.5871 98.2871 76.2075 98.7447 76.6651C99.2023 77.1227 99.8229 77.3799 100.47 77.3799H107.8V121.32H105.36C104.85 121.324 104.355 121.489 103.944 121.791C103.533 122.092 103.227 122.515 103.07 123L98.16 137.69C98.0619 137.935 98.0077 138.196 98 138.46C98 138.78 98.0631 139.098 98.1857 139.394C98.3084 139.69 98.4881 139.959 98.7147 140.185C98.9412 140.412 99.2103 140.592 99.5063 140.714C99.8023 140.837 100.12 140.9 100.44 140.9H203C203.32 140.9 203.638 140.837 203.934 140.714C204.23 140.592 204.499 140.412 204.725 140.185C204.952 139.959 205.132 139.69 205.254 139.394C205.377 139.098 205.44 138.78 205.44 138.46C205.431 138.197 205.38 137.937 205.29 137.69L200.4 123.05C200.246 122.565 199.942 122.142 199.533 121.84C199.123 121.538 198.629 121.374 198.12 121.37H195.68V77.4302L203 77.3799Z" fill="#FBB03B"/>
</g>
<defs>
<clipPath id="clip0_2359_1398">
<rect width="300.45" height="175.08" fill="black"/>
</clipPath>
</defs>
</svg>
