<svg viewBox="0 0 301 176" fill="none" xmlns="http://www.w3.org/2000/svg">
<g clip-path="url(#clip0_2359_1410)">
<g opacity="0.1">
<path d="M81.9497 56.55C83.297 55.2458 84.5628 53.8599 85.7397 52.4001C86.3634 51.4012 86.7627 50.2786 86.9098 49.1101C87.2059 47.7781 87.7744 46.5218 88.5797 45.4202C91.3897 40.3602 97.1498 38.7398 98.2898 31.7498C98.4398 30.8398 99.7798 30.2898 100.53 29.4998C100.91 29.0898 101.48 28.5 101.47 28.03C101.47 25.88 102.52 25.1199 103.76 24.1799C104.885 23.3853 105.728 22.2544 106.17 20.95C106.462 19.4884 107.058 18.1047 107.919 16.8884C108.78 15.6721 109.888 14.6504 111.17 13.8899C113.17 12.6399 114.88 10.54 116.79 8.76001C116.89 9.20001 116.98 9.43974 116.94 9.47974C113.86 12.6497 112.14 16.8298 110.94 21.5798C110.52 23.2998 109.17 24.6302 108.31 26.1902C106.666 28.9757 105.164 31.8426 103.81 34.78C102.7 37.41 101.67 39.9298 99.5598 41.4998C97.7298 42.8698 97.0998 45.1402 96.7798 47.7102C96.5198 49.7102 96.8698 52.3501 94.4098 52.8201C94.2198 52.8201 93.9498 53.6 93.9998 53.95C94.3198 56.52 92.9998 57.6198 91.5098 58.4998C89.3998 59.7598 88.1598 61.8899 87.5098 64.6199C86.9309 67.4653 85.4679 70.0551 83.3297 72.0198C82.1997 73.0198 81.6997 75.1302 80.8497 76.6902C80.2597 77.7602 79.5797 78.7398 78.7297 80.0798C79.7297 83.0798 76.0297 84.1501 75.8397 87.1301L74.7197 86.9299C74.1097 88.1299 73.7198 89.6901 72.8998 90.3601C69.7598 92.9101 67.8997 96.5101 66.6198 100.86C65.8797 103.38 65.7298 103.31 64.7698 103.06C63.5498 104.56 62.5298 105.63 61.6898 106.89C60.7001 108.194 59.9269 109.65 59.3998 111.2C58.8298 113.32 58.5298 115.41 56.7498 116.56C56.2498 116.88 56.0597 117.92 55.6097 118.48C54.9397 119.31 54.1598 120.02 53.0598 121.15C53.1977 121.92 53.0762 122.713 52.7142 123.406C52.3522 124.1 51.7703 124.653 51.0598 124.98C50.4039 125.657 50.0287 126.557 50.0098 127.5C50.0428 128.527 49.783 129.543 49.2606 130.428C48.7383 131.314 47.975 132.032 47.0598 132.5C42.7698 134.57 40.7198 138.81 39.6198 144.13C39.0598 146.84 37.8097 148.65 35.5497 149.35C34.2717 149.796 33.1279 150.56 32.2255 151.569C31.323 152.578 30.6914 153.8 30.3898 155.12C28.9164 160.2 25.8182 164.658 21.5698 167.81C19.0298 169.81 16.7498 172.39 14.0098 174.37C14.1267 173.866 14.2977 173.377 14.5198 172.91C17.7098 167.61 21.0598 162.45 24.0898 157.01C26.8298 152.11 29.1698 146.85 31.8298 141.87C33.0998 139.48 33.0997 135.87 35.9197 134.87C35.9197 131.81 38.5897 131.87 39.4197 129.87C40.4197 127.41 41.1498 124.75 41.9998 122.18C42.5798 120.42 41.9198 117.74 44.2598 117.3C44.1098 113.63 47.2598 114.3 48.3198 112.37C49.3115 110.766 50.1486 109.072 50.8198 107.31C52.1698 103.31 53.9198 99.8498 56.9998 97.4998C58.0998 96.6598 58.6497 94.6199 59.4197 93.0999C60.5097 90.9699 61.5398 88.7799 62.6598 86.6799C64.5098 83.2299 66.4998 79.9001 68.2698 76.3801C69.3498 74.2501 69.9197 71.7499 72.1997 70.9099C72.7697 70.7099 73.2798 69.23 73.3998 68.26C73.6798 66.1 74.4897 64.7299 76.1198 64.1199C78.2798 63.3199 78.9697 60.9702 79.7297 58.6702C80.1797 57.0202 80.8197 55.5401 81.9497 56.55Z" fill="white"/>
<path d="M84.9301 -0.0300293C80.7401 8.86997 79.87 19.9701 73.82 27.8201C72.47 29.5701 71.95 32.3198 70.93 34.5198C69.64 37.3298 68.23 40.0498 66.86 42.8098C66.4338 43.4545 66.0974 44.1544 65.86 44.8899C65.33 47.6999 64.53 49.75 62.29 51.47C60.87 52.57 59.82 55.19 58.12 56.55C57.8975 56.8357 57.7777 57.188 57.7801 57.55C57.5401 63.97 53.78 67.8102 50.48 71.1702C48.1491 73.3684 46.4119 76.1204 45.43 79.1702C44.51 82.0002 42.89 84.4701 41.56 87.0901C41.29 87.6201 41 88.3098 40.56 88.5198C36.87 90.4498 35.8401 95.4202 33.3401 98.7102C30.8401 102 28.8101 106.06 26.3401 109.44C20.6201 117.16 14.77 124.71 8.88004 132.23C6.66004 135.07 4.22004 137.62 1.76004 140.43C1.76004 140 1.65004 139.81 1.70004 139.74C5.86004 133.84 8.77003 126.93 11.94 120.16C14.51 114.69 18.2101 110.05 20.4001 104.16C20.9415 103.032 21.6874 102.015 22.6 101.16C25.2641 98.0886 27.1354 94.4115 28.05 90.45C28.8364 87.1989 30.4484 84.2058 32.73 81.76C34.2657 79.786 35.6625 77.7074 36.9101 75.5398L39.67 71.4202C39.8921 71.179 40.0713 70.9014 40.2 70.5999C40.69 68.7799 41.0301 66.8799 41.6601 65.1399C41.8901 64.4899 42.74 64.07 43.37 63.8C45.37 62.96 46.03 61.4298 45.5 58.7498C44.92 55.7498 45.4501 53.0202 47.6601 51.2102C50.4743 48.853 52.6625 45.8367 54.0301 42.4299C54.2754 41.782 54.6122 41.1725 55.0301 40.6199C59.6236 35.3363 63.3928 29.3891 66.2101 22.9797C66.6101 21.9797 67.64 21.5002 68.33 20.7102C69.2461 19.8973 70.0024 18.9202 70.56 17.8298C71.72 14.5798 73.78 12.5699 75.84 10.3899C78.94 7.08989 81.9001 3.47997 84.9301 -0.0300293Z" fill="white"/>
<path d="M52.9199 161.56C55.3199 156.73 57.8399 152 60.0699 147.05C61.3399 144.25 62.0099 141.05 63.1699 138.14C64.8499 133.97 66.65 129.87 68.58 125.89C69.1 124.83 70.29 124.27 71.2 123.54C72.45 122.54 72.7599 121.09 73.1999 119.3C73.9699 116.49 74.5199 112.75 77.1299 111.54C81.0099 109.74 81.9699 105.46 83.2299 101.3C83.5199 100.3 83.9 98.9801 84.52 98.6301C88.79 96.2101 90.5199 90.86 93.2599 86.72C94.3299 85.12 95.49 83.62 96.55 82.03C97.79 80.17 98.98 78.2499 100.19 76.3499C100.586 75.6134 101.037 74.9082 101.54 74.24C104.62 70.85 107.83 67.6399 110.81 64.0999C112.66 61.9099 114.17 59.2601 115.81 56.8201C116.26 56.1601 116.73 55.5201 117.19 54.8801L117.82 55.3801C116.64 58.1135 115.453 60.8398 114.26 63.5598C113.26 65.8598 112.26 68.18 111.26 70.45C110.63 71.84 109.9 73.16 109.26 74.53C108.93 75.2 108.67 75.9099 108.36 76.5999C108.05 77.2899 107.61 78.2501 107.23 79.0701C107.23 79.1501 107.1 79.17 107.06 79.24C104.85 83.19 102.55 87.0701 100.5 91.1501C99.9099 92.3301 98.58 93.5598 99.42 95.5198C99.0842 96.0142 98.6523 96.4362 98.15 96.76C97.1201 97.2749 96.2134 98.0061 95.492 98.9036C94.7706 99.801 94.2514 100.844 93.9699 101.96C93.634 102.728 93.1821 103.44 92.6299 104.07C92.0299 105 90.7599 105.4 91.3599 107.31C91.4799 107.69 90.21 108.71 89.65 109.52C88.65 110.87 87.8 112.29 86.8 113.8L88.3399 116.03C86.2181 118.322 84.2154 120.722 82.3399 123.22C80.9 125.623 79.6141 128.114 78.4899 130.68C78.3399 130.98 78.36 131.44 78.19 131.68C76.03 134.78 73.8533 137.867 71.66 140.94C70.13 143.08 68.57 145.19 67.02 147.32C66.9481 147.471 66.868 147.618 66.78 147.76L53.46 162.27L52.9199 161.56Z" fill="white"/>
<path d="M0 95.8601C0.431175 94.4715 0.959152 93.1148 1.58002 91.8C3.07002 89.1301 4.71002 86.5998 6.27002 83.9998C8.92002 79.5698 11.8 75.3199 14.14 70.6399C18 62.9099 21.75 55.0499 25.04 46.9099C26.38 43.5699 29.37 42.9798 30.53 39.7898C30.91 38.7298 31.77 37.7898 31.89 36.7898C32.37 32.3098 34.89 29.7099 37.2 26.9099C40 23.4599 42.96 20.19 45.95 17.01C47.95 14.85 50.19 12.9402 52.33 10.9602C53.73 9.67021 55.16 8.44019 56.57 7.19019L57.02 7.67017C55.25 10.7802 53.41 13.8398 51.71 17.0198C50.26 19.7298 48.51 22.3801 47.71 25.4001C46.3 30.8101 43.19 34.5898 40.77 39.0198C39.5 41.3398 38.33 43.7402 36.97 45.9602C32.82 52.7202 28.84 59.67 24.36 66.05C19.61 72.79 14.36 79.0499 9.35999 85.3699C6.41999 89.0599 3.36 92.5501 0.309998 96.1301L0 95.8601Z" fill="white"/>
</g>
<g opacity="0.1">
<path d="M264.5 57.3098C265.842 56.0002 267.105 54.6113 268.28 53.1501C268.908 52.153 269.307 51.0295 269.45 49.8601C269.746 48.5311 270.315 47.2778 271.12 46.1799C273.94 41.1199 279.69 39.4998 280.84 32.4998C280.98 31.5998 282.33 31.0398 283.07 30.2498C283.45 29.8498 284.07 29.2498 284.01 28.7898C284.01 26.6298 285.01 25.8699 286.31 24.9299C287.431 24.1337 288.271 23.0031 288.71 21.7C289.009 20.2487 289.608 18.8763 290.469 17.6707C291.33 16.465 292.434 15.453 293.71 14.7C295.71 13.44 297.43 11.3501 299.34 9.57007C299.43 10.0001 299.52 10.2498 299.48 10.2898C296.4 13.4598 294.68 17.6399 293.48 22.3899C293.05 24.0999 291.7 25.3898 290.85 26.9998C289.203 29.7818 287.698 32.6455 286.34 35.5798C285.23 38.2098 284.2 40.73 282.09 42.3C280.26 43.67 279.64 45.94 279.31 48.51C279.06 50.51 279.41 53.1499 276.95 53.6199C276.76 53.6199 276.48 54.4 276.53 54.76C276.85 57.33 275.53 58.42 274.04 59.3C271.93 60.56 270.7 62.6999 270.04 65.4299C269.457 68.2737 267.995 70.8622 265.86 72.8298C264.72 73.8298 264.22 75.94 263.37 77.49C262.79 78.56 262.1 79.5399 261.26 80.8899C262.26 83.8899 258.55 84.9602 258.36 87.9402L257.25 87.74C256.63 88.94 256.25 90.4899 255.42 91.1599C252.28 93.7099 250.42 97.3199 249.14 101.66C248.4 104.18 248.25 104.11 247.29 103.86C246.07 105.36 245.05 106.43 244.22 107.7C243.229 109.005 242.453 110.46 241.92 112.01C241.36 114.13 241.05 116.21 239.27 117.36C238.77 117.69 238.58 118.73 238.14 119.28C237.46 120.12 236.68 120.82 235.58 121.95C235.718 122.72 235.597 123.514 235.235 124.207C234.873 124.9 234.291 125.453 233.58 125.78C232.94 126.463 232.583 127.364 232.58 128.3C232.42 130.85 231.31 132.45 229.58 133.3C225.29 135.36 223.25 139.61 222.15 144.93C221.59 147.63 220.34 149.45 218.08 150.15C215.62 150.91 213.8 152.92 212.92 155.92C211.434 160.995 208.339 165.449 204.1 168.61C201.55 170.61 199.27 173.19 196.53 175.16C196.656 174.662 196.827 174.177 197.04 173.71C200.24 168.41 203.58 163.25 206.62 157.81C209.36 152.9 211.7 147.64 214.35 142.66C215.63 140.27 215.63 136.66 218.44 135.71C218.44 132.64 221.12 132.71 221.94 130.71C222.94 128.26 223.68 125.6 224.53 123.03C225.11 121.27 224.44 118.58 226.78 118.14C226.63 114.48 229.78 115.14 230.84 113.22C231.832 111.616 232.669 109.922 233.34 108.16C234.69 104.11 236.44 100.69 239.52 98.3401C240.62 97.5001 241.17 95.46 241.94 93.95C243.03 91.82 244.06 89.63 245.19 87.53C247.04 84.08 249.02 80.7397 250.8 77.2297C251.87 75.0997 252.44 72.59 254.72 71.76C255.29 71.55 255.8 70.0799 255.93 69.0999C256.2 66.9499 257.02 65.57 258.65 64.97C260.8 64.17 261.49 61.8198 262.25 59.5198C262.73 57.7698 263.38 56.2898 264.5 57.3098Z" fill="white"/>
<path d="M267.48 0.749756C263.29 9.65976 262.41 20.7501 256.36 28.6101C255.01 30.3601 254.49 33.1098 253.48 35.3098C252.18 38.1198 250.77 40.8401 249.41 43.5901C248.988 44.2369 248.651 44.9362 248.41 45.6702C247.88 48.4802 247.07 50.54 244.84 52.26C243.41 53.35 242.36 55.9701 240.66 57.3401C240.436 57.6243 240.319 57.9783 240.33 58.3401C240.09 64.7601 236.33 68.6102 233.02 71.9602C230.689 74.1584 228.952 76.9104 227.97 79.9602C227.06 82.8002 225.44 85.2701 224.11 87.8801C223.84 88.4101 223.54 89.1001 223.11 89.3201C219.43 91.2501 218.4 96.2198 215.89 99.4998C213.38 102.78 211.36 106.86 208.89 110.24C203.17 117.95 197.32 125.51 191.44 133.02C189.22 135.86 186.77 138.41 184.32 141.23C184.27 140.8 184.2 140.6 184.25 140.54C188.41 134.63 191.32 127.73 194.49 120.96C197.06 115.48 200.76 110.84 202.95 104.96C203.496 103.835 204.241 102.819 205.15 101.96C207.814 98.8889 209.685 95.2113 210.6 91.2498C211.395 88.0019 213.006 85.0109 215.28 82.5598C216.819 80.5861 218.219 78.508 219.47 76.3401L222.22 72.2297C222.443 71.9873 222.625 71.7105 222.76 71.4099C223.25 69.5899 223.58 67.68 224.21 65.95C224.593 65.3053 225.203 64.8275 225.92 64.6101C227.92 63.7601 228.58 62.24 228.06 59.55C227.47 56.55 228.01 53.8198 230.21 52.0198C233.022 49.6581 235.212 46.6438 236.59 43.24C236.833 42.5878 237.17 41.9749 237.59 41.4202C242.191 36.1423 245.961 30.1939 248.77 23.78C249.17 22.78 250.2 22.31 250.89 21.51C251.806 20.7009 252.562 19.7274 253.12 18.6399C254.28 15.3799 256.34 13.37 258.41 11.2C261.48 7.84995 264.44 4.23976 267.48 0.749756Z" fill="white"/>
<path d="M235.46 162.31C237.86 157.49 240.38 152.75 242.62 147.8C243.88 145 244.55 141.8 245.71 138.89C247.39 134.73 249.19 130.63 251.12 126.65C251.64 125.58 252.83 125.03 253.74 124.29C254.99 123.29 255.3 121.84 255.79 120.06C256.57 117.25 257.11 113.51 259.72 112.29C263.61 110.49 264.56 106.22 265.82 102.05C266.12 101.05 266.49 99.7401 267.11 99.3801C271.38 96.9601 273.11 91.62 275.86 87.47C276.92 85.87 278.08 84.38 279.14 82.78C280.38 80.92 281.57 79.0001 282.78 77.1101C283.171 76.3709 283.623 75.6649 284.13 74.9998C287.21 71.5998 290.42 68.3901 293.4 64.8601C295.25 62.6701 296.76 60.0101 298.4 57.5701C298.85 56.9201 299.32 56.2801 299.78 55.6301L300.42 56.1399C299.233 58.8599 298.047 61.5867 296.86 64.3201C295.86 66.6201 294.86 68.93 293.86 71.2C293.22 72.6 292.49 73.91 291.86 75.28C291.54 75.95 291.27 76.6699 290.96 77.3499C290.65 78.0299 290.21 79.0098 289.83 79.8298C289.83 79.8998 289.7 79.9298 289.66 79.9998C287.45 83.9498 285.15 87.8199 283.1 91.9099C282.51 93.0799 281.19 94.3198 282.02 96.2698C281.687 96.7666 281.255 97.189 280.75 97.51C279.724 98.0308 278.821 98.7639 278.1 99.6604C277.38 100.557 276.858 101.597 276.57 102.71C276.238 103.483 275.785 104.198 275.23 104.83C274.63 105.76 273.36 106.16 273.96 108.06C274.08 108.44 272.81 109.47 272.25 110.27C271.3 111.63 270.4 113.04 269.4 114.55L270.94 116.79C268.813 119.077 266.81 121.477 264.94 123.98C263.492 126.375 262.206 128.864 261.09 131.43C260.94 131.73 260.96 132.19 260.78 132.43C258.62 135.537 256.447 138.624 254.26 141.69C252.73 143.84 251.16 145.95 249.62 148.07C249.545 148.224 249.461 148.374 249.37 148.52L236.05 163.03L235.46 162.31Z" fill="white"/>
<path d="M182.54 96.6199C182.975 95.2278 183.506 93.868 184.13 92.55C185.61 89.8801 187.25 87.3598 188.81 84.7498C191.46 80.3198 194.34 76.0799 196.68 71.3899C200.54 63.6599 204.3 55.8099 207.58 47.6599C208.92 44.3199 211.92 43.7298 213.07 40.5398C213.46 39.5398 214.32 38.5898 214.43 37.5398C214.91 33.0698 217.43 30.4602 219.74 27.6702C222.54 24.2102 225.5 20.95 228.49 17.76C230.49 15.6 232.73 13.7002 234.88 11.7102C236.27 10.4302 237.7 9.20019 239.12 7.94019L239.57 8.42993C237.79 11.5399 235.95 14.6 234.25 17.78C232.8 20.48 231.05 23.1299 230.25 26.1599C228.85 31.5599 225.74 35.34 223.31 39.78C222.04 42.09 220.87 44.5 219.51 46.72C215.37 53.47 211.38 60.42 206.9 66.8C202.16 73.55 196.96 79.8001 191.9 86.1301C188.96 89.8101 185.9 93.3099 182.9 96.8899L182.54 96.6199Z" fill="white"/>
</g>
<path fill-rule="evenodd" clip-rule="evenodd" d="M114.69 135.16C116.08 126.78 123.42 123.43 130.92 120.74L131.16 120.66C136.5 119.23 146.03 113.53 146.03 101.28C146.03 90.8802 141.82 85.8202 139.55 83.0902L138.68 81.9901C138.5 81.5801 137.61 79.25 138.89 73.83C139.097 73.1805 139.168 72.4954 139.097 71.8173C139.027 71.1392 138.817 70.4829 138.48 69.89C136.85 66.24 133.83 59.4303 136.1 53.9403C139.1 46.3403 141.84 44.84 146.73 42.64C147.014 42.5098 147.288 42.3597 147.55 42.1903C150.41 40.7136 153.581 39.9386 156.8 39.9301C158.728 39.8625 160.64 40.2969 162.35 41.1903C164.12 42.1903 165.81 44.0903 168.35 50.1903C173.13 61.0903 170.1 67.1902 168.57 69.3002C168.068 69.9909 167.719 70.7807 167.546 71.6171C167.374 72.4535 167.382 73.3173 167.57 74.1503C168.75 79.1503 167.99 81.2503 167.79 81.6703L166.66 83.08C164.4 85.81 160.19 90.8699 160.19 101.27C160.19 113.52 169.72 119.22 175.06 120.65L175.3 120.73C182.8 123.42 190.14 126.73 191.53 135.15L114.69 135.16ZM176.88 114.96C176.88 114.96 166.21 112.41 166.21 101.28C166.21 91.4902 170.59 88.0401 172.28 85.6601C172.28 85.6601 175.76 82.6599 173.43 72.7899C177.31 67.3999 178.58 58.6399 173.82 47.7899C171.17 41.4599 168.82 37.9999 165.28 35.9799C162.673 34.5939 159.752 33.905 156.8 33.9799C152.424 33.982 148.12 35.0938 144.29 37.2103C138.29 39.8903 134.29 42.3499 130.58 51.7299C127.32 59.6099 131.19 68.1601 133.1 72.4501C130.78 82.2801 134 85.6601 134 85.6601C135.7 88.0401 140.08 91.4902 140.08 101.28C140.08 112.41 129.41 114.96 129.41 114.96C122.64 117.39 108.5 122.06 108.5 138.13C108.489 138.527 108.559 138.922 108.706 139.291C108.853 139.66 109.073 139.995 109.354 140.276C109.635 140.557 109.97 140.777 110.339 140.924C110.708 141.071 111.103 141.141 111.5 141.13H194.83C195.227 141.141 195.622 141.071 195.991 140.924C196.36 140.777 196.695 140.557 196.976 140.276C197.257 139.995 197.477 139.66 197.624 139.291C197.771 138.922 197.841 138.527 197.83 138.13C197.83 122.06 183.69 117.39 176.92 114.96M206.02 108.4C206.02 108.4 199.35 106.89 199.35 98.2201C199.35 90.6101 201.64 87.93 203 86.08C203 86.08 205.58 83.45 203.72 75.81C205.25 72.46 208.35 65.8103 205.72 59.6903C202.72 52.4003 200.72 50.4803 195.96 48.4003C192.886 46.7461 189.45 45.8802 185.96 45.8803C183.896 45.8558 181.851 46.2715 179.96 47.1C180.703 48.9644 181.324 50.8753 181.82 52.8202L182.05 52.6703C183.262 52.0663 184.607 51.7771 185.96 51.83C188.319 51.8459 190.645 52.3856 192.77 53.4101C193.03 53.58 193.305 53.7272 193.59 53.85C196.52 55.13 197.59 55.6101 200.23 61.9501C201.8 65.6501 199.56 70.5704 198.35 73.2104C197.783 74.4636 197.633 75.8653 197.92 77.2104C198.74 80.5504 198.36 82.1101 198.23 82.4901V82.56L198.03 82.83C196.42 85 193.44 89.0504 193.44 98.2104C193.44 108.46 200.33 112.99 204.32 114.09C208.12 115.45 211.63 117.58 212.52 123.24H199.65C200.838 125.093 201.779 127.094 202.45 129.19H215.72C216.117 129.201 216.512 129.131 216.881 128.984C217.25 128.837 217.585 128.617 217.866 128.336C218.147 128.055 218.367 127.72 218.514 127.351C218.661 126.982 218.731 126.587 218.72 126.19C218.72 114.29 211.51 110.27 206.09 108.37M102.16 114.07C106.16 112.97 113.04 108.44 113.04 98.1903C113.04 89.0303 110.04 84.98 108.45 82.81L108.25 82.5399V82.4701C108.12 82.0901 107.74 80.5303 108.56 77.1903C108.848 75.8453 108.697 74.4435 108.13 73.1903C106.92 70.5503 104.68 65.6301 106.25 61.9301C108.86 55.5901 109.96 55.11 112.89 53.83C113.176 53.7072 113.45 53.56 113.71 53.39C115.835 52.3656 118.161 51.8259 120.52 51.81C121.797 51.7728 123.064 52.0366 124.22 52.58C124.48 51.531 124.814 50.5017 125.22 49.4999C125.58 48.5899 125.97 47.8099 126.35 46.9999C124.508 46.2274 122.527 45.8398 120.53 45.8603C117.04 45.8602 113.604 46.7261 110.53 48.3803C105.77 50.4603 103.77 52.3803 100.77 59.6703C98.16 65.7903 101.26 72.4399 102.77 75.7899C100.91 83.4299 103.49 86.06 103.49 86.06C104.85 87.91 107.14 90.5901 107.14 98.2001C107.14 106.87 100.47 108.38 100.47 108.38C95.06 110.28 87.84 114.3 87.84 126.2C87.829 126.597 87.8991 126.992 88.0459 127.361C88.1928 127.73 88.4133 128.065 88.6941 128.346C88.9749 128.627 89.3101 128.847 89.6791 128.994C90.0481 129.141 90.443 129.211 90.84 129.2H104.11C104.776 127.102 105.718 125.101 106.91 123.25H94.0401C94.9301 117.59 98.44 115.46 102.24 114.1" fill="#FBB03B"/>
</g>
<defs>
<clipPath id="clip0_2359_1410">
<rect width="300.45" height="175.08" fill="white"/>
</clipPath>
</defs>
</svg>
