<svg width="1366" height="620" viewBox="0 0 1366 620" fill="none" xmlns="http://www.w3.org/2000/svg">
<g clip-path="url(#clip0_2428_1353)">
<path d="M1366.34 0H0V622.61H1366.34V0Z" fill="url(#paint0_linear_2428_1353)"/>
<path d="M1366 27.85V38.21L683 259.82V249.45L1366 27.85Z" fill="#262626"/>
<path d="M683 249.45V259.82L0 38.21V27.85L683 249.45Z" fill="#262626"/>
<path d="M1366 55.0699V65.4299L683 287.04V276.67L1366 55.0699Z" fill="#262626"/>
<path d="M683 276.67V287.04L0 65.4299V55.0699L683 276.67Z" fill="#262626"/>
<path d="M1366 82.04V92.4L683 314.01V303.64L1366 82.04Z" fill="#262626"/>
<path d="M683 303.64V314.01L0 92.4V82.04L683 303.64Z" fill="#262626"/>
<path d="M683 0.11L0 0V10.46L683 232.06L1366 10.46V0L683 0.11Z" fill="#262626"/>
</g>
<defs>
<linearGradient id="paint0_linear_2428_1353" x1="683.17" y1="622.6" x2="683.17" y2="0" gradientUnits="userSpaceOnUse">
<stop stop-color="white"/>
<stop offset="0.23" stop-color="#C6C6C6"/>
<stop offset="0.61" stop-color="#717171"/>
<stop offset="0.87" stop-color="#3B3B3B"/>
<stop offset="1" stop-color="#262626"/>
</linearGradient>
<clipPath id="clip0_2428_1353">
<rect width="1366" height="619.27" fill="white"/>
</clipPath>
</defs>
</svg>
