<?xml version="1.0" encoding="utf-8"?>
<svg version="1.1" id="svg" fill="currentColor" xmlns="http://www.w3.org/2000/svg" xmlns:xlink="http://www.w3.org/1999/xlink" x="0px" y="0px"
	 viewBox="0 0 24 24" style="enable-background:new 0 0 24 24;" xml:space="preserve">
<style type="text/css">
	.st0{fill-rule:evenodd;clip-rule:evenodd;fill:#FFFFFF;}
</style>
<path class="st0" d="M20,18c0,1.1-0.9,2-2,2H6c-1.1,0-2-0.9-2-2v-7h2.1C6,11.3,6,11.7,6,12c0,3.3,2.7,6,6,6s6-2.7,6-6
	c0-0.3,0-0.7-0.1-1H20V18L20,18z M12,8c2.2,0,4,1.8,4,4s-1.8,4-4,4s-4-1.8-4-4S9.8,8,12,8 M16,5h3v3h-3V5L16,5z M18,2H6
	C3.8,2,2,3.8,2,6v12c0,2.2,1.8,4,4,4h12c2.2,0,4-1.8,4-4V6C22,3.8,20.2,2,18,2"/>
</svg>