<svg width="24" height="24" viewBox="0 0 24 24" fill="none" xmlns="http://www.w3.org/2000/svg">
<path fill-rule="evenodd" clip-rule="evenodd" d="M3.59996 2.00002C3.67935 1.986 3.76057 1.986 3.83996 2.00002C3.91264 2.04145 3.97983 2.09187 4.03996 2.15004L13.04 11.2901C13.101 11.3493 13.1487 11.4209 13.18 11.5C13.2194 11.5739 13.24 11.6563 13.24 11.74C13.24 11.8237 13.2194 11.9061 13.18 11.98C13.1487 12.0591 13.101 12.1307 13.04 12.19L4.03996 21.34C3.98258 21.3987 3.91475 21.4462 3.83996 21.48C3.76426 21.513 3.68256 21.5302 3.59996 21.5302C3.51737 21.5302 3.43566 21.513 3.35996 21.48C3.28517 21.4462 3.21734 21.3987 3.15996 21.34L2.15996 20.34C2.09893 20.2807 2.05121 20.2092 2.01996 20.13C1.98478 20.0546 1.96441 19.9731 1.95996 19.89C1.9875 19.8395 2.02107 19.7925 2.05996 19.75C2.09324 19.669 2.14064 19.5945 2.19996 19.53L9.74996 11.82L2.19996 4.11C2.13893 4.05072 2.09121 3.97918 2.05996 3.90004C2.02057 3.82618 1.99996 3.74376 1.99996 3.66005C1.99996 3.57634 2.02057 3.49392 2.05996 3.42006C2.09121 3.34093 2.13893 3.26926 2.19996 3.20998L3.19996 2.20998C3.26009 2.15181 3.32728 2.10151 3.39996 2.06008C3.47935 2.04606 3.56058 2.04606 3.63996 2.06008L3.59996 2.00002Z" fill="#FBB03B"/>
<path fill-rule="evenodd" clip-rule="evenodd" d="M12.1499 2.00002C12.2259 1.98613 12.3038 1.98613 12.3799 2.00002C12.4575 2.03832 12.5284 2.08901 12.5899 2.15004L21.5899 11.2901C21.6478 11.3519 21.6951 11.4228 21.7299 11.5C21.7629 11.5757 21.7799 11.6574 21.7799 11.74C21.7799 11.8226 21.7629 11.9043 21.7299 11.98C21.6951 12.0572 21.6478 12.1281 21.5899 12.19L12.5899 21.34C12.5306 21.401 12.459 21.4487 12.3799 21.48C12.3043 21.4986 12.2254 21.4986 12.1499 21.48C12.071 21.4987 11.9888 21.4987 11.9099 21.48C11.8307 21.4487 11.7591 21.401 11.6999 21.34L10.6999 20.34C10.642 20.2782 10.5947 20.2072 10.5599 20.13C10.5447 20.0507 10.5447 19.9693 10.5599 19.89C10.5458 19.8106 10.5458 19.7294 10.5599 19.65C10.5967 19.5709 10.6438 19.497 10.6999 19.4301L18.2599 11.72L10.6999 4.01003C10.642 3.9482 10.5947 3.87729 10.5599 3.80007C10.5268 3.72437 10.5098 3.64267 10.5098 3.56008C10.5098 3.47748 10.5268 3.39566 10.5599 3.31996C10.5947 3.24274 10.642 3.17183 10.6999 3.11L11.6999 2.11C11.7613 2.04897 11.8322 1.99828 11.9099 1.95998C11.9892 1.94596 12.0705 1.94596 12.1499 1.95998V2.00002Z" fill="#FBB03B"/>
</svg>
