<svg width="1366" height="620" viewBox="0 0 1366 620" fill="none" xmlns="http://www.w3.org/2000/svg">
<g clip-path="url(#clip0_2428_1353)">
<path d="M1366 4.08997H0V619.27H1366V4.08997Z" fill="url(#paint0_linear_2428_1353)"/>
<path d="M1366 27.85V38.21L683 259.82V249.45L1366 27.85Z" fill="#262626"/>
<path d="M683 249.45V259.82L0 38.21V27.85L683 249.45Z" fill="#262626"/>
<path d="M1366 55.0699V65.4299L683 287.04V276.67L1366 55.0699Z" fill="#262626"/>
<path d="M683 276.67V287.04L0 65.4299V55.0699L683 276.67Z" fill="#262626"/>
<path d="M1366 82.04V92.4L683 314.01V303.64L1366 82.04Z" fill="#262626"/>
<path d="M683 303.64V314.01L0 92.4V82.04L683 303.64Z" fill="#262626"/>
<path d="M683 0.11L0 0V10.46L683 232.06L1366 10.46V0L683 0.11Z" fill="#262626"/>
</g>
<defs>
<linearGradient id="paint0_linear_2428_1353" x1="683" y1="619.27" x2="683" y2="4.08997" gradientUnits="userSpaceOnUse">
<stop stop-color="#262626"/>
<stop offset="0.15" stop-color="#2E2C27"/>
<stop offset="0.27" stop-color="#393328"/>
<stop offset="0.34" stop-color="#423929"/>
<stop offset="0.47" stop-color="#5C4A2B"/>
<stop offset="0.63" stop-color="#866430"/>
<stop offset="0.82" stop-color="#BF8935"/>
<stop offset="1" stop-color="#FBB03B"/>
</linearGradient>
<clipPath id="clip0_2428_1353">
<rect width="1366" height="619.27" fill="white"/>
</clipPath>
</defs>
</svg>
