<svg width="344" height="149" viewBox="0 0 344 149" fill="none" xmlns="http://www.w3.org/2000/svg">
<g clip-path="url(#clip0_2414_1363)">
<path d="M232.85 89.4298C231.78 89.0298 230.76 88.6699 229.76 88.2699C229.242 88.0255 228.788 87.6661 228.431 87.2189C228.074 86.7717 227.824 86.2485 227.7 85.6898C227.325 84.3321 227.294 82.9025 227.61 81.5299C227.66 81.2399 227.69 80.9399 227.74 80.5299C227.52 80.5149 227.3 80.5149 227.08 80.5299C223.53 80.8799 219.97 81.22 216.42 81.62C215.801 81.7408 215.198 81.9284 214.62 82.1798C213.102 82.7769 211.458 82.98 209.84 82.7699C208.515 82.6746 207.183 82.8032 205.9 83.15C198.82 84.51 191.75 85.9199 184.68 87.3199C184.454 87.368 184.24 87.4598 184.05 87.59C179.785 90.6575 175.318 93.4339 170.68 95.9C167.506 97.6959 164.072 98.9846 160.5 99.7198C156.21 100.496 151.783 99.8316 147.91 97.83C147.549 97.6453 147.134 97.5955 146.74 97.6898C143.68 98.6298 140.633 99.5966 137.6 100.59C137.191 100.738 136.819 100.974 136.51 101.28C131.053 106.954 125.899 112.913 121.07 119.13C120.29 120.13 119.52 121.06 118.7 121.99C118.53 122.2 118.18 122.25 117.92 122.37C117.92 122.09 117.92 121.74 118.06 121.54C121.63 116.92 125.17 112.27 128.84 107.73C130.42 105.73 132.29 104.06 134.03 102.22C134.211 102.044 134.348 101.828 134.43 101.59C133.34 101.94 132.23 102.27 131.14 102.64C118.33 106.98 105.58 111.5 93.02 116.53C81.86 121.01 70.77 125.73 59.64 130.29C49.43 134.47 39.24 138.7 28.95 142.7C23.0291 145.051 16.9074 146.862 10.66 148.11C8.59482 148.477 6.49431 148.604 4.39997 148.49C3.2651 148.325 2.18558 147.893 1.25001 147.23C0.76001 146.93 0.59001 146.13 0.25001 145.61C-0.08999 145.09 0.08001 144.39 0.25001 143.76C0.831576 142.05 1.77265 140.485 3.00996 139.17C5.90804 135.773 9.14107 132.678 12.66 129.93C20.2819 123.983 28.271 118.522 36.58 113.58C45.1 108.36 53.68 103.24 62.36 98.2999C76.61 90.1699 91.26 82.7698 105.93 75.4398C121.017 67.8932 136.257 60.6666 151.65 53.7599C159.53 50.2399 167.53 47.04 175.65 44.16C177.71 43.42 179.81 42.7799 181.88 42.0499C182.242 41.9188 182.56 41.6905 182.8 41.39C184.16 39.57 185.47 37.72 186.8 35.91C187.29 35.26 187.87 34.6699 188.41 34.0599C188.49 33.9447 188.601 33.8545 188.73 33.7999C189.03 33.7299 189.41 33.5999 189.64 33.7199C189.87 33.8399 189.75 34.27 189.78 34.57L189.53 34.4198C189.196 34.5815 188.889 34.7942 188.62 35.0499C187.06 37.0499 185.54 39.1398 184.01 41.1998L184.12 41.33C185.67 40.83 187.19 40.26 188.76 39.83C193.24 38.62 197.71 37.36 202.24 36.33C207.54 35.13 212.88 34.12 218.24 33.1C220.32 32.7 222.44 32.4899 224.54 32.2299C224.735 32.2317 224.925 32.1702 225.082 32.0548C225.239 31.9394 225.354 31.7764 225.41 31.59C226.619 28.5538 227.413 25.3684 227.77 22.12C227.929 20.139 227.631 18.1479 226.9 16.2999C225.298 12.2498 222.405 8.84062 218.67 6.59998C214.117 3.78119 208.993 2.01153 203.67 1.4198C200.413 1.0998 197.134 1.05978 193.87 1.29993C182.74 1.88993 172.1 4.74992 161.55 8.03992C155.468 10.0183 149.566 12.5141 143.91 15.4999C135.931 19.6002 128.377 24.4808 121.36 30.0699C116.835 33.7277 112.608 37.7405 108.72 42.07C105.919 45.0464 103.442 48.3113 101.33 51.8099C99.4115 55.0258 98.141 58.5861 97.59 62.2899C97.4 63.5599 97.49 64.86 97.41 66.14C97.41 66.35 97.22 66.5399 97.12 66.7399C97.0014 66.5456 96.9169 66.3327 96.87 66.11C96.695 60.4387 98.2733 54.8514 101.39 50.11C104.55 44.97 108.67 40.66 112.88 36.4C119.648 29.7754 127.173 23.9719 135.3 19.11C142.811 14.38 150.827 10.5058 159.2 7.55994C166.05 5.24087 173.037 3.34734 180.12 1.89002C186.692 0.492464 193.402 -0.158513 200.12 -0.0501685C205.746 0.0198983 211.284 1.36007 216.32 3.87C220.028 5.53687 223.237 8.14256 225.63 11.4298C227.713 14.2181 228.887 17.5809 228.99 21.0599C228.933 23.7481 228.454 26.4105 227.57 28.9498C227.27 29.9498 226.92 30.8498 226.57 31.9498L229.81 31.6C233.326 31.105 236.87 30.8344 240.42 30.7899C243.08 30.7899 245.75 30.7898 248.42 30.6798C251.873 30.6109 255.327 30.8082 258.75 31.2699C261.58 31.5899 264.42 31.8699 267.25 32.2199C267.932 32.3369 268.602 32.5178 269.25 32.7599C272.277 33.7199 275.297 34.6931 278.31 35.6798C278.733 35.858 279.127 36.0974 279.48 36.39C279.72 36.57 279.89 36.8499 280.12 37.0399C281.601 38.4095 282.677 40.1601 283.23 42.1C283.85 43.76 284.42 45.44 284.98 47.1C285.093 47.5007 285.157 47.9137 285.17 48.33C285.17 48.56 285.17 48.7999 285.17 49.0299C285.358 52.3511 284.777 55.6708 283.47 58.7299C282.698 60.703 281.741 62.5984 280.61 64.39C277.13 69.79 272.28 73.7198 266.79 76.9298C261.088 80.3108 255.149 83.2753 249.02 85.7999C245.779 87.1525 242.435 88.2427 239.02 89.0599C238.611 89.1612 238.191 89.2082 237.77 89.1998C236.905 89.1811 236.065 89.4922 235.42 90.0699C233.14 91.8299 230.82 93.5199 228.53 95.2499C228.13 95.5599 227.79 95.93 227.35 96.34C230.873 97.1485 234.503 97.3815 238.1 97.0299C242.76 96.7499 247.41 96.2899 252.1 95.8099C256.37 95.3699 260.62 94.7399 264.89 94.2599C267.82 93.9299 270.75 93.6998 273.68 93.4598C283.61 92.6498 293.57 92.8399 303.52 92.7299C306.67 92.7299 309.81 92.39 312.95 92.11C315.761 91.7786 318.598 91.7215 321.42 91.9398C324.782 92.1229 328.079 92.9372 331.14 94.34C331.979 94.8814 332.763 95.5043 333.48 96.1998C333.531 96.2441 333.572 96.2988 333.6 96.36C335.07 99.08 337.54 100.13 340.44 100.47C341.32 100.57 342.2 100.73 343.06 100.91C343.265 100.982 343.442 101.118 343.562 101.299C343.683 101.479 343.742 101.695 343.729 101.911C343.717 102.128 343.634 102.335 343.493 102.501C343.353 102.667 343.162 102.782 342.95 102.83C340.95 102.77 338.84 103.03 336.85 102.26C334.86 101.49 333.27 100.57 332.49 98.6C331.71 96.63 330.01 95.8299 328.18 95.2699C323.573 93.9351 318.749 93.5138 313.98 94.0299C309.286 94.5194 304.569 94.7496 299.85 94.7198C292.3 94.5698 284.75 94.5899 277.22 95.0099C273.91 95.1999 270.61 95.54 267.31 95.9C259.12 96.8 250.95 97.83 242.75 98.66C238.243 99.1766 233.693 99.2033 229.18 98.7399C228.142 98.5835 227.117 98.3564 226.11 98.0599C225.823 97.9729 225.58 97.7798 225.43 97.5199C225.237 97.0979 225.172 96.6284 225.243 96.1698C225.314 95.7112 225.518 95.2835 225.83 94.9398C227.13 93.8098 228.47 92.7298 229.83 91.6698C230.76 90.9298 231.85 90.1798 232.85 89.4298ZM180.42 44.65C180.02 44.77 179.78 44.83 179.55 44.91C170.39 48.0034 161.39 51.5332 152.55 55.4999C128.55 66.2665 104.883 77.7866 81.55 90.0599C63.27 99.6499 45.37 109.89 28.12 121.26C20.88 126.03 13.74 130.94 7.50996 137.02C5.61166 138.815 3.93324 140.829 2.50996 143.02C1.81996 144.12 1.65001 145.24 2.31001 145.76C2.95352 146.3 3.73717 146.647 4.56996 146.76C6.26904 146.929 7.98273 146.882 9.66999 146.62C16.1757 145.243 22.5623 143.354 28.77 140.97C40.31 136.72 51.58 131.82 62.93 127.1C72.76 123.03 82.55 118.87 92.44 114.95C106.03 109.55 119.81 104.65 133.72 100.12C135.969 99.5194 137.978 98.2373 139.47 96.4498C140.27 95.4498 141.23 94.54 142.15 93.58C141.51 92.91 140.9 92.31 140.33 91.66C140.217 91.5093 140.06 91.3981 139.88 91.3424C139.701 91.2867 139.508 91.2893 139.33 91.35C137.33 91.75 135.27 92.2099 133.21 92.4799C130.608 92.8636 127.951 92.5639 125.5 91.61C122.38 90.36 121.63 88.1099 123.35 85.2499C124.28 83.9566 125.527 82.9237 126.97 82.2499C127.614 81.8351 128.342 81.5704 129.102 81.4752C129.862 81.38 130.634 81.4567 131.36 81.6998C132.882 82.2339 134.254 83.1257 135.36 84.2999C136.83 85.9299 138.36 87.5 139.86 89.11C139.957 89.2505 140.1 89.3531 140.264 89.4005C140.428 89.4479 140.603 89.4371 140.76 89.37C142.46 88.87 144.19 88.4498 145.88 87.9198C146.67 87.7484 147.405 87.3844 148.02 86.86C150.4 84.26 152.717 81.5933 154.97 78.86C158.11 75.06 161.32 71.31 164.25 67.35C168.62 61.44 172.78 55.35 177.03 49.35C178.28 47.84 179.31 46.31 180.45 44.65H180.42ZM238.7 87.4398C240.29 86.9798 241.7 86.6 243.18 86.14C249.263 84.0867 255.144 81.4791 260.75 78.35C265.052 76.1916 269.094 73.5512 272.8 70.4799C276.997 66.9412 280.138 62.3157 281.88 57.11C282.465 55.5592 282.865 53.9446 283.07 52.2999C283.357 49.4857 282.916 46.6449 281.79 44.0499C281.7 43.8099 281.61 43.57 281.54 43.32C281.004 41.279 279.877 39.4419 278.3 38.0399C278.03 37.7894 277.714 37.5925 277.37 37.4598C274.183 36.3998 270.993 35.3533 267.8 34.32C267.377 34.1893 266.941 34.1021 266.5 34.0599C264.09 33.7899 261.67 33.5299 259.26 33.2799C256.85 33.0299 254.66 32.67 252.35 32.62C248.81 32.54 245.25 32.6699 241.7 32.7199C239.79 32.7199 237.87 32.72 235.96 32.87C232.85 33.14 229.74 33.58 226.63 33.87C226.336 33.8663 226.049 33.955 225.808 34.1237C225.568 34.2924 225.386 34.5325 225.29 34.8099C222.934 40.0445 219.62 44.7927 215.52 48.8099C211.29 52.908 206.801 56.7292 202.08 60.2499C194.264 66.3202 185.894 71.6406 177.08 76.14C167.85 80.8399 158.35 84.9904 148.63 88.5699C148.333 88.6368 148.053 88.7662 147.81 88.9498C146.54 90.3598 145.29 91.8099 143.98 93.3099C144.98 94.0899 145.93 94.8299 146.89 95.5199C147.106 95.6307 147.358 95.6523 147.59 95.58L156.78 92.86C165.593 90.2267 174.48 87.8933 183.44 85.86C183.8 85.7779 184.14 85.6249 184.44 85.41C189.861 81.2611 194.996 76.7509 199.81 71.91C204.99 66.82 209.96 61.5199 215 56.2799C221.08 49.9532 227.15 43.6032 233.21 37.2299C233.65 36.7799 234.13 36.3698 234.6 35.9498C234.77 35.8047 234.986 35.7252 235.21 35.7252C235.434 35.7252 235.65 35.8047 235.82 35.9498C235.986 36.0484 236.11 36.2055 236.168 36.3903C236.225 36.5751 236.212 36.7744 236.13 36.9498C235.89 37.5398 235.65 38.1298 235.37 38.6798C233.842 41.5707 232.072 44.3272 230.08 46.9198C224 55.0498 217.93 63.1999 212.84 72.0199C211.625 73.9886 210.696 76.1199 210.08 78.35C209.948 78.9845 209.891 79.6321 209.91 80.2799C209.91 80.4199 210.29 80.7098 210.45 80.6798C212.75 80.2998 215.1 80.2698 217.32 79.4198C219.08 78.7531 220.857 78.1166 222.65 77.5099C223.819 77.1064 225.011 76.7725 226.22 76.5099C226.582 76.3991 226.963 76.3651 227.339 76.41C227.715 76.4549 228.077 76.5777 228.403 76.7706C228.729 76.9636 229.01 77.2223 229.23 77.5304C229.45 77.8385 229.603 78.1892 229.68 78.5599C229.96 78.5599 230.26 78.5599 230.57 78.5599C232.85 78.6499 235.14 78.65 237.42 78.86C238.574 79.0059 239.705 79.2912 240.79 79.7098C241.297 79.8656 241.725 80.2091 241.987 80.67C242.249 81.131 242.325 81.6746 242.2 82.1898C241.963 83.0804 241.567 83.9206 241.03 84.6698C240.322 85.6401 239.554 86.5652 238.73 87.4398H238.7ZM150.06 86.4398C150.45 86.2898 150.67 86.23 150.88 86.14C157.19 83.65 163.46 81.05 169.59 78.14C175.959 75.2286 182.138 71.9185 188.09 68.2299C197.065 62.5755 205.521 56.137 213.36 48.9899C217.671 45.0392 221.226 40.3357 223.85 35.11C223.99 34.84 224.11 34.5498 224.28 34.1798C223.1 34.3098 222.05 34.3699 221.02 34.5599C215.63 35.5599 210.21 36.4498 204.88 37.6998C197.364 39.3615 189.946 41.438 182.66 43.9198C182.314 44.0449 182.01 44.263 181.78 44.5499C181.11 45.4199 180.47 46.3099 179.87 47.2299C172.474 58.5384 164.431 69.41 155.78 79.7899C153.93 81.9599 152.07 84.1198 150.08 86.4398H150.06ZM208.3 81.0099C208.078 79.3204 208.356 77.6029 209.1 76.0699C210.7 71.8699 213.23 68.1798 215.63 64.4398C220.45 56.9398 225.99 49.9699 231.23 42.7899C231.89 41.8899 232.41 40.8798 232.99 39.9198C231.67 41.1298 230.35 42.32 229.13 43.6C223.01 50.06 216.97 56.5999 210.8 63.0099C203.687 70.6215 196.113 77.7883 188.12 84.4698C187.96 84.5998 187.81 84.74 187.64 84.9L208.3 81.0099ZM149.19 96.7899L149.27 96.9698C149.92 97.2198 150.55 97.5098 151.21 97.7198C155.55 99.0768 160.227 98.8823 164.44 97.1698C169.962 94.8921 175.209 91.9972 180.08 88.5399C180.109 88.498 180.136 88.4547 180.16 88.41L180.08 88.2098L149.19 96.7899ZM138.76 89.7899C137.43 88.3899 136.17 87.0899 134.96 85.7399C134.065 84.7567 132.989 83.9555 131.79 83.38C131.264 83.0994 130.678 82.9476 130.082 82.9371C129.486 82.9267 128.896 83.0579 128.36 83.3199C127.639 83.6943 126.941 84.1117 126.27 84.5699C125.343 85.1763 124.66 86.0899 124.34 87.15C124.199 87.4932 124.172 87.8723 124.262 88.2321C124.352 88.5918 124.554 88.9135 124.84 89.15C125.727 89.8788 126.789 90.3646 127.92 90.5599C131.56 91.4199 135.09 90.68 138.75 89.83L138.76 89.7899ZM232.28 80.14V80.3199C231.51 80.3199 230.73 80.3199 229.97 80.3199C229.78 80.3199 229.46 80.5198 229.43 80.6698C229.067 82.0749 229.013 83.5417 229.27 84.9698C229.364 85.3644 229.543 85.7338 229.793 86.0531C230.043 86.3724 230.359 86.634 230.72 86.8199C232.028 87.3764 233.429 87.6783 234.85 87.7098C235.032 87.7317 235.215 87.6815 235.36 87.5699C236.85 86.2199 238.36 84.9299 239.77 83.4799C241.18 82.0299 240.86 81.14 238.82 80.84C236.78 80.54 234.47 80.36 232.29 80.13L232.28 80.14ZM143.09 94.2999L139.6 98.0099L139.68 98.14L145.47 96.2899L143.09 94.2999ZM143.44 92.2999L145.65 89.7699L145.56 89.64L141.56 90.7699L143.44 92.2999ZM228.1 78.7899C227.48 77.9299 224.97 78.16 223.61 79.13L228.1 78.7899Z" fill="black"/>
</g>
<defs>
<clipPath id="clip0_2414_1363">
<rect width="343.89" height="148.53" fill="white"/>
</clipPath>
</defs>
</svg>
