<svg xmlns="http://www.w3.org/2000/svg" viewBox="0 0 300.45 175.08"><defs><style>.cls-1{opacity:0.1;}.cls-2{fill:#fff;}.cls-3{fill:#fbb03b;fill-rule:evenodd;}</style></defs><g id="Layer_2" data-name="Layer 2"><g id="Layer_1-2" data-name="Layer 1"><g class="cls-1"><path class="cls-2" d="M82,56.55a44.26,44.26,0,0,0,3.79-4.15,8,8,0,0,0,1.17-3.29,9.89,9.89,0,0,1,1.67-3.69c2.82-5.06,8.57-6.68,9.71-13.67.15-.91,1.49-1.46,2.24-2.25.38-.41,1-1,.94-1.47,0-2.15,1-2.91,2.29-3.85A6.51,6.51,0,0,0,106.17,21a10.63,10.63,0,0,1,5-7.06c2-1.25,3.72-3.35,5.63-5.13.09.44.18.68.14.72-3.08,3.17-4.8,7.35-6,12.1-.42,1.72-1.77,3.05-2.63,4.61-1.54,2.83-3.22,5.57-4.5,8.59-1.11,2.63-2.14,5.15-4.25,6.72-1.83,1.37-2.45,3.64-2.78,6.21-.26,2,.09,4.64-2.37,5.11-.18,0-.46.78-.41,1.13.32,2.57-1,3.67-2.49,4.55-2.11,1.26-3.35,3.4-4,6.12A13.72,13.72,0,0,1,83.29,72c-1.13,1-1.63,3.11-2.48,4.67-.59,1.07-1.27,2-2.12,3.39,1,3-2.7,4.07-2.89,7l-1.11-.2c-.62,1.2-1,2.76-1.83,3.43-3.14,2.55-5,6.16-6.28,10.5-.74,2.52-.89,2.45-1.85,2.2-1.22,1.5-2.24,2.57-3.07,3.83a15.29,15.29,0,0,0-2.3,4.31c-.57,2.12-.87,4.21-2.65,5.36-.5.32-.69,1.36-1.14,1.92-.67.83-1.45,1.54-2.55,2.67A3.53,3.53,0,0,1,51,125a3.73,3.73,0,0,0-1,2.52,5.42,5.42,0,0,1-3,5c-4.29,2.07-6.34,6.31-7.44,11.63-.56,2.71-1.81,4.52-4.07,5.22a8,8,0,0,0-5.16,5.78,24.27,24.27,0,0,1-8.82,12.69c-2.54,2-4.82,4.57-7.56,6.55a8.63,8.63,0,0,1,.51-1.46C17.62,167.57,21,162.41,24,157c2.73-4.9,5.07-10.16,7.73-15.14,1.27-2.39,1.27-6,4.09-7,0-3.06,2.68-3,3.5-5,1-2.46,1.73-5.12,2.58-7.69.58-1.76-.08-4.44,2.26-4.88-.15-3.67,3-3,4.06-4.93a29.76,29.76,0,0,0,2.5-5.06c1.35-4,3.1-7.46,6.18-9.81,1.1-.84,1.65-2.88,2.42-4.4,1.09-2.13,2.12-4.32,3.24-6.42,1.85-3.45,3.84-6.78,5.61-10.3,1.08-2.13,1.65-4.63,3.93-5.47.57-.2,1.08-1.68,1.2-2.65.28-2.16,1.09-3.53,2.73-4.14,2.15-.8,2.84-3.15,3.6-5.45C80.19,57,80.82,55.54,82,56.55Z"/><path class="cls-2" d="M84.93,0c-4.19,8.9-5.06,20-11.11,27.85-1.35,1.75-1.87,4.5-2.89,6.7-1.29,2.81-2.7,5.53-4.06,8.29a8.54,8.54,0,0,0-1,2.08c-.52,2.81-1.33,4.86-3.57,6.58-1.42,1.1-2.47,3.72-4.17,5.08a1.54,1.54,0,0,0-.33,1c-.24,6.42-4,10.26-7.31,13.62a19,19,0,0,0-5,8c-.92,2.83-2.54,5.3-3.87,7.92-.27.53-.56,1.22-1,1.43-3.69,1.93-4.72,6.9-7.22,10.19s-4.53,7.35-7,10.74c-5.72,7.71-11.57,15.26-17.45,22.78-2.23,2.84-4.67,5.39-7.13,8.2,0-.43-.11-.62-.06-.69,4.16-5.9,7.07-12.81,10.24-19.58,2.57-5.47,6.27-10.11,8.46-16a10.11,10.11,0,0,1,2.2-3A24.89,24.89,0,0,0,28,90.47a19.54,19.54,0,0,1,4.68-8.69,54,54,0,0,0,4.18-6.22l2.76-4.12a3.15,3.15,0,0,0,.54-.82c.49-1.82.82-3.72,1.45-5.46.24-.65,1.08-1.07,1.71-1.34,2-.84,2.66-2.37,2.14-5-.59-3-.06-5.73,2.15-7.54A22.28,22.28,0,0,0,54,42.45a7.61,7.61,0,0,1,1-1.81A69.26,69.26,0,0,0,66.16,23c.4-1,1.43-1.48,2.12-2.27a9.84,9.84,0,0,0,2.23-2.88c1.16-3.25,3.22-5.26,5.28-7.44C78.94,7.09,81.9,3.49,84.93,0Z"/><path class="cls-2" d="M52.92,161.56c2.4-4.83,4.92-9.56,7.15-14.51,1.27-2.8,1.94-6,3.1-8.91,1.68-4.17,3.48-8.27,5.41-12.25.52-1.06,1.71-1.62,2.62-2.35,1.25-1,1.56-2.45,2-4.24.78-2.81,1.32-6.55,3.93-7.76,3.89-1.8,4.84-6.08,6.1-10.24.29-1,.67-2.32,1.29-2.67,4.27-2.42,6-7.77,8.74-11.91,1.07-1.6,2.23-3.1,3.29-4.69,1.24-1.86,2.43-3.78,3.64-5.68a16.53,16.53,0,0,1,1.35-2.11c3.08-3.39,6.29-6.6,9.27-10.14,1.85-2.19,3.36-4.84,5-7.28.45-.66.92-1.3,1.38-1.94l.64.5-3.57,8.18c-1,2.3-2,4.62-3,6.89-.64,1.39-1.37,2.71-2,4.08-.33.67-.59,1.38-.9,2.07s-.75,1.65-1.13,2.47c0,.08-.13.1-.17.17-2.21,4-4.51,7.83-6.56,11.91-.59,1.18-1.92,2.41-1.08,4.37a4.45,4.45,0,0,1-1.27,1.24A8.05,8.05,0,0,0,94,102a7.92,7.92,0,0,1-1.34,2.11c-.6.93-1.87,1.33-1.27,3.24.12.38-1.15,1.41-1.71,2.21-1,1.35-1.85,2.77-2.85,4.28L88.38,116a88.91,88.91,0,0,0-6,7.19,64.63,64.63,0,0,0-3.86,7.46c-.15.3-.13.76-.3,1Q75,136.34,71.7,141c-1.54,2.14-3.1,4.25-4.64,6.38-.1.13-.15.33-.25.44L53.49,162.28Z"/><path class="cls-2" d="M0,95.86A31.12,31.12,0,0,1,1.58,91.8c1.49-2.67,3.13-5.2,4.69-7.8,2.65-4.43,5.53-8.68,7.87-13.36C18,62.91,21.76,55.05,25,46.91c1.34-3.34,4.33-3.93,5.49-7.12.39-1.06,1.25-2,1.36-3,.48-4.48,3-7.08,5.31-9.88C40,23.44,43,20.17,46,17c2-2.16,4.24-4.07,6.38-6,1.4-1.29,2.83-2.52,4.24-3.77l.45.48c-1.77,3.11-3.61,6.17-5.31,9.35-1.45,2.71-3.2,5.36-4,8.38C46.31,30.79,43.2,34.57,40.78,39c-1.27,2.32-2.44,4.72-3.8,6.94C32.84,52.7,28.85,59.65,24.37,66c-4.74,6.74-10,13-15,19.32-2.94,3.69-6,7.18-9,10.76Z"/></g><g class="cls-1"><path class="cls-2" d="M264.5,57.31a46.78,46.78,0,0,0,3.78-4.16,8,8,0,0,0,1.17-3.29,9.84,9.84,0,0,1,1.67-3.68c2.82-5.06,8.58-6.68,9.72-13.68.14-.9,1.49-1.46,2.23-2.25.38-.4.95-1,.94-1.46,0-2.16,1.05-2.92,2.3-3.86a6.4,6.4,0,0,0,2.4-3.23,10.61,10.61,0,0,1,5-7c2-1.26,3.72-3.35,5.63-5.13a4,4,0,0,1,.15.72c-3.08,3.17-4.81,7.35-6,12.1-.43,1.71-1.78,3-2.63,4.61a93.12,93.12,0,0,0-4.5,8.58c-1.11,2.63-2.15,5.15-4.26,6.72-1.83,1.37-2.45,3.64-2.78,6.21-.25,2,.1,4.64-2.36,5.11-.19,0-.47.78-.42,1.14.32,2.57-1,3.66-2.49,4.54-2.11,1.26-3.34,3.4-4,6.13a13.82,13.82,0,0,1-4.18,7.4c-1.13,1-1.64,3.11-2.49,4.66-.58,1.07-1.27,2-2.11,3.4,1,3-2.71,4.07-2.9,7l-1.11-.2c-.62,1.2-1,2.75-1.83,3.42-3.14,2.56-5,6.16-6.28,10.5-.74,2.52-.89,2.45-1.85,2.2-1.22,1.5-2.24,2.57-3.07,3.84a15.41,15.41,0,0,0-2.3,4.31c-.56,2.12-.87,4.21-2.65,5.35-.5.33-.68,1.37-1.13,1.92-.68.84-1.46,1.54-2.55,2.67a3.53,3.53,0,0,1-2.06,3.83,3.77,3.77,0,0,0-1,2.52c-.16,2.55-1.27,4.15-3,5-4.29,2.06-6.33,6.31-7.43,11.63-.56,2.7-1.81,4.52-4.07,5.22-2.46.76-4.28,2.77-5.16,5.77A24.32,24.32,0,0,1,204,168.53c-2.55,2-4.83,4.58-7.57,6.55a7.75,7.75,0,0,1,.52-1.45c3.19-5.3,6.53-10.46,9.57-15.9,2.74-4.91,5.08-10.17,7.73-15.15,1.28-2.39,1.28-6,4.1-7,0-3.07,2.67-3,3.49-5,1-2.45,1.74-5.11,2.59-7.68.58-1.76-.08-4.45,2.25-4.89-.15-3.66,3-3,4.06-4.92a29.75,29.75,0,0,0,2.5-5.06c1.35-4,3.1-7.47,6.18-9.82,1.1-.84,1.65-2.88,2.42-4.39,1.09-2.13,2.12-4.32,3.25-6.42C247,84,249,80.64,250.73,77.13c1.07-2.13,1.64-4.64,3.92-5.47.57-.21,1.08-1.68,1.21-2.66.27-2.15,1.09-3.53,2.72-4.13,2.15-.8,2.85-3.15,3.6-5.45C262.73,57.77,263.37,56.29,264.5,57.31Z"/><path class="cls-2" d="M267.48.76c-4.19,8.9-5.07,20-11.12,27.85-1.35,1.75-1.87,4.5-2.88,6.7-1.3,2.81-2.71,5.53-4.07,8.28a8.87,8.87,0,0,0-1,2.08c-.53,2.81-1.34,4.87-3.57,6.59-1.42,1.09-2.48,3.71-4.18,5.08a1.54,1.54,0,0,0-.33,1c-.24,6.42-4,10.27-7.31,13.62a19,19,0,0,0-5,8c-.91,2.84-2.53,5.31-3.86,7.92-.27.53-.57,1.22-1,1.44-3.68,1.93-4.71,6.9-7.22,10.18s-4.53,7.36-7,10.74c-5.72,7.71-11.57,15.27-17.45,22.78-2.22,2.84-4.67,5.39-7.12,8.21,0-.43-.11-.63-.07-.69,4.16-5.91,7.07-12.81,10.25-19.58,2.56-5.48,6.26-10.11,8.45-16a10.34,10.34,0,0,1,2.2-3,24.78,24.78,0,0,0,5.45-10.71,19.64,19.64,0,0,1,4.68-8.69,54,54,0,0,0,4.19-6.22l2.75-4.11a3.06,3.06,0,0,0,.54-.82c.49-1.82.82-3.73,1.45-5.46a3,3,0,0,1,1.71-1.34c2-.85,2.66-2.37,2.14-5.06-.59-3-.05-5.73,2.15-7.53a22.48,22.48,0,0,0,6.38-8.78,7.47,7.47,0,0,1,1-1.82A68.64,68.64,0,0,0,248.7,23.75c.4-1,1.43-1.47,2.12-2.27a9.66,9.66,0,0,0,2.24-2.87c1.15-3.26,3.21-5.27,5.28-7.44C261.48,7.85,264.44,4.24,267.48.76Z"/><path class="cls-2" d="M235.46,162.31c2.4-4.82,4.92-9.56,7.16-14.51,1.26-2.8,1.93-6,3.1-8.91,1.67-4.16,3.47-8.26,5.41-12.24.51-1.07,1.71-1.62,2.61-2.36,1.26-1,1.56-2.45,2.06-4.23.77-2.81,1.31-6.55,3.92-7.77,3.89-1.8,4.84-6.07,6.1-10.24.3-1,.67-2.31,1.29-2.67,4.27-2.42,6-7.76,8.75-11.91,1.06-1.6,2.22-3.09,3.28-4.69,1.25-1.86,2.43-3.78,3.64-5.67A15.24,15.24,0,0,1,284.13,75c3.08-3.4,6.29-6.61,9.27-10.14,1.85-2.19,3.36-4.85,5-7.29.45-.65.92-1.29,1.38-1.94l.64.51q-1.79,4.08-3.56,8.18c-1,2.3-2,4.61-3,6.89-.63,1.39-1.37,2.7-2,4.07-.32.67-.59,1.39-.9,2.07-.37.83-.75,1.66-1.13,2.48,0,.07-.13.1-.17.17-2.2,4-4.51,7.82-6.56,11.91-.59,1.17-1.91,2.41-1.08,4.36a4.19,4.19,0,0,1-1.27,1.24,8.11,8.11,0,0,0-4.18,5.2,8,8,0,0,1-1.34,2.12c-.6.93-1.87,1.33-1.27,3.23.12.38-1.15,1.41-1.71,2.21-1,1.36-1.85,2.77-2.85,4.28l1.54,2.24a87.22,87.22,0,0,0-6,7.19,62.91,62.91,0,0,0-3.85,7.45c-.15.3-.13.76-.31,1q-3.24,4.67-6.52,9.26c-1.53,2.15-3.1,4.26-4.64,6.38a4.79,4.79,0,0,1-.25.45Q242.71,155.79,236,163Z"/><path class="cls-2" d="M182.54,96.62a31.29,31.29,0,0,1,1.59-4.07c1.48-2.67,3.13-5.19,4.68-7.8,2.65-4.43,5.54-8.67,7.87-13.36,3.86-7.73,7.62-15.58,10.9-23.73,1.35-3.34,4.34-3.93,5.5-7.12.38-1,1.24-1.95,1.35-3,.48-4.47,3-7.08,5.31-9.87,2.8-3.46,5.76-6.72,8.75-9.91,2-2.16,4.24-4.06,6.39-6,1.39-1.28,2.82-2.51,4.24-3.77l.45.49c-1.78,3.11-3.62,6.17-5.32,9.35-1.44,2.7-3.2,5.35-4,8.38-1.4,5.4-4.51,9.18-6.94,13.62-1.27,2.31-2.43,4.72-3.8,6.94-4.14,6.75-8.13,13.7-12.61,20.08-4.74,6.75-9.94,13-15,19.33-2.94,3.68-6,7.18-9,10.76Z"/></g><path class="cls-3" d="M114.7,135.16c1.38-8.38,8.72-11.73,16.22-14.42l.24-.08c5.35-1.43,14.87-7.13,14.87-19.38,0-10.4-4.21-15.46-6.47-18.19-.45-.55-1-1.26-.88-1.1-.18-.4-1.07-2.74.21-8.16a4.94,4.94,0,0,0-.41-3.94c-1.63-3.65-4.65-10.46-2.38-16,3-7.6,5.74-9.1,10.63-11.3a6.53,6.53,0,0,0,.82-.45,20.28,20.28,0,0,1,9.25-2.26,11.11,11.11,0,0,1,5.55,1.26c1.77,1,3.47,2.9,6,9,4.78,10.9,1.75,17,.22,19.11a6,6,0,0,0-1,4.85c1.18,5,.42,7.1.22,7.52l-1.13,1.41c-2.26,2.73-6.47,7.79-6.47,18.19,0,12.25,9.53,18,14.87,19.38l.24.08c7.5,2.69,14.84,6,16.23,14.42ZM176.88,115s-10.67-2.54-10.67-13.68c0-9.79,4.38-13.24,6.07-15.62,0,0,3.48-3,1.15-12.87,3.89-5.38,5.15-14.15.39-25-2.65-6.32-5-9.79-8.54-11.81a17.14,17.14,0,0,0-8.48-2,25.89,25.89,0,0,0-12.51,3.23c-5.95,2.68-9.95,5.14-13.71,14.52-3.26,7.88.62,16.43,2.53,20.72-2.33,9.83.89,13.21.89,13.21,1.7,2.38,6.08,5.83,6.08,15.62,0,11.14-10.67,13.68-10.67,13.68-6.77,2.43-20.9,7.1-20.9,23.17a2.92,2.92,0,0,0,3,3h83.33a2.92,2.92,0,0,0,3-3c0-16.07-14.14-20.74-20.91-23.17M206,108.4s-6.67-1.51-6.67-10.17c0-7.62,2.3-10.3,3.65-12.15,0,0,2.58-2.63.72-10.27,1.53-3.35,4.63-10,2-16.12-3-7.29-5-9.21-9.76-11.29a21.1,21.1,0,0,0-10-2.52,14.55,14.55,0,0,0-6,1.22,44.73,44.73,0,0,1,1.86,5.72l.23-.15a8.06,8.06,0,0,1,3.91-.84,15.93,15.93,0,0,1,6.81,1.58,5.4,5.4,0,0,0,.82.44c2.93,1.28,4,1.76,6.64,8.1,1.58,3.7-.67,8.62-1.87,11.26a6.3,6.3,0,0,0-.43,4c.81,3.34.43,4.9.3,5.28l0,.07-.2.27c-1.61,2.17-4.59,6.22-4.59,15.39,0,10.24,6.89,14.77,10.88,15.87,3.8,1.36,7.31,3.49,8.2,9.15H199.57a25.31,25.31,0,0,1,2.8,5.95h13.27a2.92,2.92,0,0,0,3-3c0-11.9-7.22-15.92-12.64-17.82m-103.93,5.7c4-1.1,10.88-5.63,10.88-15.87,0-9.17-3-13.22-4.59-15.39l-.2-.27,0-.07c-.13-.38-.51-1.94.31-5.28a6.44,6.44,0,0,0-.43-4c-1.21-2.64-3.45-7.56-1.88-11.26,2.62-6.34,3.71-6.82,6.64-8.1a5,5,0,0,0,.82-.44,15.93,15.93,0,0,1,6.81-1.58,8.14,8.14,0,0,1,3.7.77,22.93,22.93,0,0,1,1-3.08c.36-.91.75-1.69,1.13-2.5a14.66,14.66,0,0,0-5.82-1.14,21.1,21.1,0,0,0-10,2.52c-4.76,2.08-6.76,4-9.76,11.29-2.61,6.12.5,12.77,2,16.12-1.86,7.64.73,10.27.73,10.27,1.35,1.85,3.64,4.53,3.64,12.15,0,8.66-6.67,10.17-6.67,10.17-5.41,1.9-12.63,5.92-12.63,17.82a2.92,2.92,0,0,0,3,3h13.27a24.92,24.92,0,0,1,2.8-5.95H93.85c.89-5.66,4.4-7.79,8.2-9.15"/></g></g></svg>