<svg xmlns="http://www.w3.org/2000/svg" viewBox="0 0 44.16 44.16"><defs><style>.cls-1{fill:#fff;fill-rule:evenodd;}</style></defs><g id="Layer_2" data-name="Layer 2"><g id="Layer_1-2" data-name="Layer 1"><path class="cls-1" d="M27.46,19.06c-3,0-3.38,1.78-3.38,1.78V19.07h-4v11h4v-6s0-2,1.7-2c1,0,1.31.89,1.31,2v6h4v-6c0-3.15-1.36-5-3.65-5M14.05,30.11h4v-11h-4V30.11Zm28.1,10a2,2,0,0,1-2,2H4a2,2,0,0,1-2-2V4A2,2,0,0,1,4,2H40.14a2,2,0,0,1,2,2V40.14ZM40.14,0H4A4,4,0,0,0,0,4V40.14a4,4,0,0,0,4,4H40.14a4,4,0,0,0,4-4V4a4,4,0,0,0-4-4M16.05,14.05a2,2,0,1,0,2,2,2,2,0,0,0-2-2"/></g></g></svg>
