<svg width="45" height="45" viewBox="0 0 45 45" fill="none" xmlns="http://www.w3.org/2000/svg">
    <g clip-path="url(#clip0_2358_1376)">
        <path fill-rule="evenodd" clip-rule="evenodd"
            d="M24.0698 17.31C24.0698 16.5 24.1498 16.06 25.3998 16.06H27.0698V13.06H24.3998C21.1898 13.06 20.0598 14.5801 20.0598 17.1201V19.1201H18.0598V22.1201H20.0598V31.1201H24.0598V22.1201H26.7298L27.0798 19.1201H24.0798V17.31H24.0698ZM42.1498 40.1401C42.1498 40.6705 41.9391 41.1791 41.564 41.5541C41.189 41.9292 40.6802 42.1401 40.1498 42.1401H4.00977C3.47933 42.1401 2.97065 41.9292 2.59558 41.5541C2.22051 41.1791 2.00977 40.6705 2.00977 40.1401V4.01019C2.00977 3.47976 2.22051 2.97071 2.59558 2.59564C2.97065 2.22057 3.47933 2.01019 4.00977 2.01019H40.1398C40.6702 2.01019 41.1789 2.22057 41.554 2.59564C41.9291 2.97071 42.1398 3.47976 42.1398 4.01019V40.1401H42.1498ZM40.1498 -6.10352e-05H4.00977C2.9489 -6.10352e-05 1.93148 0.421668 1.18134 1.17181C0.43119 1.92196 0.00976562 2.93907 0.00976562 3.99994V40.1298C0.00976562 41.1907 0.43119 42.2083 1.18134 42.9584C1.93148 43.7086 2.9489 44.1298 4.00977 44.1298H40.1398C41.2006 44.1298 42.2181 43.7086 42.9682 42.9584C43.7183 42.2083 44.1398 41.1907 44.1398 40.1298V4.01019C44.1398 2.94933 43.7183 1.93173 42.9682 1.18158C42.2181 0.431434 41.2006 0.0101929 40.1398 0.0101929"
            fill="white" />
    </g>
    <defs>
        <clipPath id="clip0_2358_1376">
            <rect width="44.16" height="44.16" fill="white" />
        </clipPath>
    </defs>
</svg>