<svg xmlns="http://www.w3.org/2000/svg" viewBox="0 0 44.16 44.16"><defs><style>.cls-1{fill:#fff;fill-rule:evenodd;}</style></defs><g id="Layer_2" data-name="Layer 2"><g id="Layer_1-2" data-name="Layer 1"><path class="cls-1" d="M30.11,28.1a2,2,0,0,1-2,2h-12a2,2,0,0,1-2-2v-7h2.11a5.47,5.47,0,0,0-.1,1,6,6,0,0,0,12,0,5.47,5.47,0,0,0-.1-1h2.11v7Zm-8-10a4,4,0,1,1-4,4,4,4,0,0,1,4-4m4-3h3v3h-3v-3Zm2-3h-12a4,4,0,0,0-4,4v12a4,4,0,0,0,4,4h12a4,4,0,0,0,4-4v-12a4,4,0,0,0-4-4m14,28.1a2,2,0,0,1-2,2H4a2,2,0,0,1-2-2V4A2,2,0,0,1,4,2H40.14a2,2,0,0,1,2,2V40.14ZM40.14,0H4A4,4,0,0,0,0,4V40.14a4,4,0,0,0,4,4H40.14a4,4,0,0,0,4-4V4a4,4,0,0,0-4-4"/></g></g></svg>
