<svg width="45" height="45" viewBox="0 0 45 45" fill="none" xmlns="http://www.w3.org/2000/svg">
<g clip-path="url(#clip0_2417_1366)">
<path fill-rule="evenodd" clip-rule="evenodd" d="M42.1498 40.1401C42.1498 40.6705 41.9391 41.1791 41.564 41.5541C41.189 41.9292 40.6802 42.1401 40.1498 42.1401H4.00977C3.47933 42.1401 2.97065 41.9292 2.59558 41.5541C2.22051 41.1791 2.00977 40.6705 2.00977 40.1401V4.01019C2.00977 3.47976 2.22051 2.97071 2.59558 2.59564C2.97065 2.22057 3.47933 2.01019 4.00977 2.01019H40.1398C40.6702 2.01019 41.1789 2.22057 41.554 2.59564C41.9291 2.97071 42.1398 3.47976 42.1398 4.01019V40.1401H42.1498ZM40.1498 -6.10352e-05H4.00977C2.9489 -6.10352e-05 1.93148 0.421668 1.18134 1.17181C0.43119 1.92196 0.00976562 2.93907 0.00976562 3.99994V40.1298C0.00976562 41.1907 0.43119 42.2083 1.18134 42.9584C1.93148 43.7086 2.9489 44.1298 4.00977 44.1298H40.1398C41.2006 44.1298 42.2181 43.7086 42.9682 42.9584C43.7183 42.2083 44.1398 41.1907 44.1398 40.1298V4.01019C44.1398 2.94933 43.7183 1.93173 42.9682 1.18158C42.2181 0.431434 41.2006 0.0101929 40.1398 0.0101929" fill="white"/>
<path d="M26.6002 15.82C26.6002 15.82 27.1102 16.32 26.6002 15.82C25.9166 15.0396 25.5399 14.0374 25.5402 13H22.4502V25.4C22.4263 26.071 22.143 26.7066 21.6599 27.1729C21.1768 27.6393 20.5316 27.8999 19.8602 27.9C18.4402 27.9 17.2602 26.74 17.2602 25.3C17.2602 23.58 18.9202 22.29 20.6302 22.82V19.66C17.1802 19.2 14.1602 21.88 14.1602 25.3C14.1602 28.63 16.9202 31 19.8502 31C22.9902 31 25.5402 28.45 25.5402 25.3V19.01C26.7932 19.9099 28.2975 20.3926 29.8402 20.39V17.3C29.8402 17.3 27.9602 17.39 26.6002 15.82Z" fill="white"/>
</g>
<defs>
<clipPath id="clip0_2417_1366">
<rect width="44.16" height="44.16" fill="white"/>
</clipPath>
</defs>
</svg>