<svg width="42" height="42" viewBox="0 0 42 42" fill="none" xmlns="http://www.w3.org/2000/svg">
<g clip-path="url(#clip0_2383_1353)">
<path d="M20.92 41.84C32.4738 41.84 41.84 32.4738 41.84 20.92C41.84 9.3662 32.4738 0 20.92 0C9.3662 0 0 9.3662 0 20.92C0 32.4738 9.3662 41.84 20.92 41.84Z" fill="#262626"/>
<path fill-rule="evenodd" clip-rule="evenodd" d="M26.5603 20.5002L16.1102 9.50024C15.9998 9.3941 15.8534 9.33301 15.7002 9.32983C15.624 9.32983 15.5487 9.34512 15.4783 9.37427C15.4079 9.40342 15.344 9.4459 15.2901 9.49976C15.2363 9.55361 15.1935 9.61786 15.1644 9.68823C15.1352 9.7586 15.1203 9.83375 15.1203 9.90991C15.1186 9.98631 15.1328 10.0625 15.1621 10.1331C15.1913 10.2036 15.235 10.2673 15.2902 10.3201L25.3502 20.9402L15.2902 31.5598C15.2359 31.6133 15.1929 31.6774 15.1637 31.7478C15.1345 31.8182 15.1197 31.8937 15.1203 31.97C15.1203 32.0461 15.1352 32.1218 15.1644 32.1921C15.1935 32.2625 15.2363 32.3263 15.2901 32.3801C15.344 32.434 15.4079 32.477 15.4783 32.5061C15.5487 32.5353 15.624 32.55 15.7002 32.55C15.7764 32.5506 15.852 32.5358 15.9224 32.5066C15.9929 32.4774 16.0567 32.4344 16.1102 32.3801L26.5603 21.3801C26.6681 21.2708 26.7291 21.1236 26.7302 20.97C26.7271 20.8168 26.6664 20.6703 26.5603 20.5598" fill="white"/>
</g>
<defs>
<clipPath id="clip0_2383_1353">
<rect width="41.83" height="41.83" fill="white"/>
</clipPath>
</defs>
</svg>
