<svg width="269" height="52" viewBox="0 0 269 52" fill="none" xmlns="http://www.w3.org/2000/svg">
<g clip-path="url(#clip0_2368_1469)">
<path d="M55.5698 35.1399V16.3201H71.2098C72.1618 16.293 73.1132 16.3906 74.0398 16.6101C74.6518 16.7466 75.2194 17.0354 75.6898 17.45C76.0813 17.8261 76.3527 18.3099 76.4698 18.8401C76.6049 19.4676 76.6686 20.108 76.6598 20.7498C76.6806 21.215 76.6505 21.6812 76.5698 22.1399C76.4911 22.4867 76.3702 22.8225 76.2098 23.1399C75.9656 23.6383 75.5971 24.0656 75.1398 24.3801C74.6744 24.6887 74.1369 24.8711 73.5798 24.9099C74.2613 24.9382 74.9278 25.1191 75.5298 25.4397C75.7877 25.5908 76.029 25.7687 76.2498 25.97C76.4944 26.1936 76.7035 26.4533 76.8698 26.74C77.0668 27.0774 77.215 27.4411 77.3098 27.8201C77.4333 28.283 77.4905 28.761 77.4798 29.24C77.4826 29.8412 77.4525 30.4419 77.3898 31.0398C77.3409 31.5424 77.2162 32.0346 77.0198 32.4998C76.8344 32.9333 76.5582 33.3221 76.2098 33.6399C75.807 34.0048 75.3341 34.2837 74.8198 34.4597C74.1255 34.6951 73.4082 34.856 72.6798 34.9397C71.6842 35.0561 70.6822 35.1097 69.6798 35.0999L55.5698 35.1399ZM68.8398 24.1399C69.6398 24.1399 70.3198 24.1399 70.8998 24.1399C71.3972 24.12 71.8922 24.0596 72.3798 23.9597C72.7329 23.893 73.0715 23.7644 73.3798 23.5798C73.6266 23.4318 73.8301 23.2216 73.9698 22.97C74.1211 22.6833 74.2194 22.3717 74.2598 22.0501C74.3071 21.6284 74.3305 21.2044 74.3298 20.78C74.3407 20.3504 74.2834 19.9217 74.1598 19.51C74.0536 19.1946 73.8369 18.9283 73.5498 18.76C73.1834 18.5566 72.7776 18.4335 72.3598 18.3997C71.7188 18.3326 71.0744 18.3027 70.4298 18.3098H57.9398V24.1399H68.8398ZM68.8398 33.1399C69.7498 33.1399 70.5398 33.1399 71.2098 33.1399C71.7774 33.1227 72.3426 33.0592 72.8998 32.95C73.2965 32.882 73.6787 32.7468 74.0298 32.5501C74.3054 32.3762 74.5324 32.1352 74.6898 31.8499C74.864 31.5206 74.9727 31.1605 75.0098 30.7898C75.075 30.2892 75.1051 29.7849 75.0998 29.28C75.1038 28.8815 75.0736 28.4835 75.0098 28.0901C74.9713 27.7825 74.8617 27.4877 74.6898 27.2297C74.5208 26.9902 74.2937 26.7974 74.0298 26.6697C73.6726 26.4995 73.2916 26.3851 72.8998 26.3298C72.3406 26.2383 71.7761 26.1816 71.2098 26.1599C70.5398 26.1599 69.7498 26.1599 68.8398 26.1599H57.9398V33.1399H68.8398Z" fill="white"/>
<path d="M93.2 24.5102C94.3054 24.5045 95.4103 24.5576 96.51 24.6699C97.2972 24.753 98.0744 24.9137 98.83 25.1499C99.3762 25.3168 99.8877 25.5813 100.34 25.9301C100.695 26.2225 100.987 26.583 101.2 26.9902C101.413 27.409 101.549 27.8628 101.6 28.3301C101.662 28.8611 101.692 29.3955 101.69 29.9301C101.693 30.4671 101.643 31.0032 101.54 31.5302C101.444 32.019 101.261 32.4864 101 32.9101C100.717 33.3411 100.357 33.7171 99.94 34.02C99.4138 34.3791 98.8376 34.6588 98.23 34.8501C97.414 35.0983 96.5773 35.2723 95.73 35.3701C94.5973 35.4901 93.4589 35.5468 92.32 35.54H89.19C88.1651 35.548 87.1405 35.5047 86.12 35.4101C85.3529 35.3395 84.5933 35.2022 83.85 35C83.2913 34.8467 82.7588 34.6111 82.27 34.3003C81.8736 34.0365 81.5337 33.6966 81.27 33.3003C81.0163 32.9035 80.8399 32.4622 80.75 32C80.6463 31.4697 80.596 30.9304 80.6 30.3901H82.94C82.9139 30.9901 83.0233 31.5882 83.26 32.1401C83.4824 32.5742 83.8558 32.9123 84.31 33.0903C84.923 33.3304 85.5721 33.4655 86.23 33.4902C87.03 33.5402 88.01 33.5703 89.23 33.5703H92.36C93.4967 33.5881 94.6332 33.5211 95.76 33.3701C96.5112 33.2879 97.2423 33.0748 97.92 32.7402C98.4136 32.5035 98.8146 32.1094 99.06 31.6201C99.2928 31.0843 99.4054 30.5039 99.39 29.9199C99.4029 29.3545 99.3252 28.7908 99.16 28.25C99.0063 27.7978 98.6887 27.4196 98.27 27.1899C97.6883 26.885 97.0534 26.6954 96.4 26.6303C95.3515 26.5049 94.2959 26.4477 93.24 26.4599H89.97C88.7413 26.4706 87.513 26.4176 86.29 26.3003C85.4216 26.2268 84.5616 26.076 83.72 25.8501C83.1286 25.6946 82.5675 25.4411 82.06 25.1001C81.6769 24.8399 81.356 24.4984 81.12 24.1001C80.8957 23.7058 80.7529 23.2708 80.7 22.8203C80.6292 22.3168 80.5957 21.8087 80.6 21.3003C80.5968 20.7666 80.647 20.2336 80.75 19.7099C80.8438 19.2313 81.0381 18.7784 81.32 18.3803C81.624 17.9567 82.0078 17.5966 82.45 17.3203C83.026 16.9727 83.649 16.7098 84.3 16.54C85.1913 16.3046 86.1014 16.1477 87.02 16.0703C88.2631 15.9536 89.5114 15.9001 90.76 15.9101H93.1C94.27 15.9101 95.3 15.91 96.18 16.04C96.9472 16.1046 97.7069 16.2384 98.45 16.4399C99.0088 16.5877 99.5417 16.8209 100.03 17.1303C100.431 17.3885 100.772 17.7295 101.03 18.1303C101.284 18.5234 101.46 18.9608 101.55 19.4199C101.646 19.9478 101.693 20.4835 101.69 21.02H99.35C99.3767 20.4297 99.2672 19.8414 99.03 19.3003C98.8056 18.8699 98.4324 18.5359 97.98 18.3603C97.363 18.1231 96.7106 17.9912 96.05 17.9702C95.26 17.9102 94.27 17.8901 93.1 17.8901H90.76C89.4714 17.8762 88.183 17.9298 86.9 18.0503C86.0796 18.1154 85.2738 18.3042 84.51 18.6103C83.9989 18.7954 83.5655 19.1478 83.28 19.6103C83.0411 20.1304 82.9248 20.6979 82.94 21.27C82.9363 21.6353 82.9665 22.0005 83.03 22.3603C83.0805 22.6635 83.2003 22.9508 83.38 23.2002C83.5719 23.4556 83.8222 23.6614 84.11 23.8003C84.5095 23.9934 84.9333 24.1309 85.37 24.2099C86.0006 24.3301 86.6388 24.4069 87.28 24.4399C88.03 24.4399 88.93 24.5 89.97 24.5L93.2 24.5102Z" fill="white"/>
<path d="M125.91 16.28V18.28H116.57V35.1399H114.22V18.24H104.85V16.24L125.91 16.28Z" fill="white"/>
<path d="M131.38 35.1399H129.04V32.7898H131.38V35.1399Z" fill="white"/>
<path d="M159.4 22.61C159.427 21.8208 159.318 21.0327 159.08 20.2799C158.904 19.7453 158.552 19.2864 158.08 18.9796C157.488 18.6571 156.833 18.466 156.16 18.4196C155.37 18.3396 154.38 18.2999 153.21 18.2999H147.73C146.73 18.2999 145.81 18.2998 145.1 18.3898C144.499 18.4291 143.906 18.5538 143.34 18.7599C142.909 18.92 142.534 19.2014 142.26 19.57C141.982 19.9939 141.795 20.4704 141.71 20.9699C141.585 21.6763 141.521 22.3925 141.52 23.11C141.52 23.95 141.52 24.95 141.52 26.11C141.52 27.27 141.52 28.27 141.52 29.11C141.527 29.8281 141.597 30.5439 141.73 31.2496C141.808 31.7496 141.992 32.227 142.27 32.6495C142.54 33.0178 142.912 33.2993 143.34 33.4596C143.906 33.6657 144.499 33.7904 145.1 33.8297C145.81 33.8897 146.69 33.9196 147.73 33.9196H153.21C154.12 33.9196 154.91 33.9197 155.57 33.8497C156.137 33.815 156.7 33.7245 157.25 33.5797C157.659 33.4777 158.044 33.294 158.38 33.0397C158.661 32.8059 158.887 32.5122 159.04 32.1798C159.214 31.7832 159.322 31.3611 159.36 30.9298C159.424 30.3621 159.454 29.7911 159.45 29.2199H161.79C161.798 29.9291 161.751 30.638 161.65 31.34C161.568 31.9274 161.392 32.4978 161.13 33.0299C160.888 33.5205 160.547 33.9559 160.13 34.3097C159.666 34.7004 159.134 35.0023 158.56 35.1998C157.826 35.461 157.064 35.6355 156.29 35.7199C155.267 35.8358 154.239 35.8894 153.21 35.88H147.73C146.518 35.9 145.307 35.8128 144.11 35.6198C143.265 35.489 142.447 35.2189 141.69 34.82C141.093 34.5075 140.586 34.0455 140.22 33.4796C139.854 32.8974 139.596 32.2538 139.46 31.5797C139.291 30.7703 139.201 29.9465 139.19 29.1198C139.19 28.1998 139.19 27.1898 139.19 26.1198C139.19 25.0498 139.19 23.9998 139.19 23.1198C139.201 22.293 139.291 21.4692 139.46 20.6598C139.596 19.9857 139.854 19.3421 140.22 18.7599C140.586 18.194 141.093 17.732 141.69 17.4196C142.447 17.0207 143.265 16.7505 144.11 16.6198C145.307 16.4268 146.518 16.34 147.73 16.36H153.21C154.239 16.3506 155.267 16.4037 156.29 16.5197C157.062 16.6079 157.822 16.7754 158.56 17.0197C159.13 17.2113 159.662 17.5028 160.13 17.88C160.542 18.211 160.883 18.6227 161.13 19.09C161.389 19.5843 161.565 20.1178 161.65 20.6696C161.753 21.331 161.8 22.0001 161.79 22.6696L159.4 22.61Z" fill="white"/>
<path d="M180.51 16.34C181.722 16.3204 182.933 16.4071 184.13 16.5997C184.975 16.7319 185.793 17.002 186.55 17.3995C187.142 17.7167 187.644 18.1778 188.01 18.7399C188.377 19.3206 188.631 19.965 188.76 20.6398C188.933 21.4488 189.026 22.2726 189.04 23.0997C189.04 24.0197 189.09 25.0297 189.09 26.0997C189.09 27.1697 189.09 28.2197 189.04 29.0997C189.026 29.9269 188.933 30.7507 188.76 31.5597C188.631 32.2344 188.377 32.8789 188.01 33.4596C187.644 34.0217 187.142 34.4828 186.55 34.7999C185.793 35.1975 184.975 35.4676 184.13 35.5997C182.933 35.7923 181.722 35.8796 180.51 35.86H173.45C172.238 35.88 171.027 35.7927 169.83 35.5997C168.985 35.469 168.167 35.1988 167.41 34.7999C166.813 34.4875 166.306 34.0255 165.94 33.4596C165.574 32.8774 165.317 32.2338 165.18 31.5597C165.011 30.7503 164.921 29.9265 164.91 29.0997C164.91 28.1797 164.91 27.1697 164.91 26.0997C164.91 25.0297 164.91 23.9797 164.91 23.0997C164.921 22.273 165.011 21.4492 165.18 20.6398C165.317 19.9657 165.574 19.3221 165.94 18.7399C166.306 18.174 166.813 17.712 167.41 17.3995C168.167 17.0006 168.985 16.7305 169.83 16.5997C171.027 16.4067 172.238 16.32 173.45 16.34H180.51ZM180.51 33.9796C181.543 33.9796 182.413 33.9498 183.12 33.8898C183.725 33.8503 184.321 33.7256 184.89 33.5197C185.317 33.3569 185.688 33.0759 185.96 32.7096C186.242 32.2877 186.429 31.8104 186.51 31.3097C186.639 30.6036 186.706 29.8874 186.71 29.1696C186.71 28.3296 186.71 27.3296 186.71 26.1696C186.71 25.0096 186.71 24.0096 186.71 23.1696C186.706 22.4517 186.639 21.736 186.51 21.0299C186.429 20.5292 186.242 20.0519 185.96 19.63C185.688 19.2638 185.317 18.9827 184.89 18.82C184.327 18.6137 183.738 18.489 183.14 18.4498C182.42 18.3898 181.55 18.36 180.51 18.36H173.45C172.45 18.36 171.53 18.3598 170.82 18.4498C170.219 18.4892 169.626 18.6139 169.06 18.82C168.63 18.98 168.254 19.2614 167.98 19.63C167.703 20.054 167.515 20.5304 167.43 21.0299C167.305 21.7364 167.241 22.4521 167.24 23.1696C167.24 24.0096 167.24 25.0096 167.24 26.1696C167.24 27.3296 167.24 28.3296 167.24 29.1696C167.247 29.8877 167.317 30.604 167.45 31.3097C167.528 31.8097 167.712 32.287 167.99 32.7096C168.261 33.0779 168.632 33.3594 169.06 33.5197C169.626 33.7257 170.219 33.8504 170.82 33.8898C171.53 33.9498 172.41 33.9796 173.45 33.9796H180.51Z" fill="white"/>
<path d="M211.26 31.24H196.57L194.13 35.55H191.41L202.11 16.7297H205.47L216.14 35.55H213.68L211.26 31.24ZM210.15 29.24L203.94 18.24L197.7 29.24H210.15Z" fill="white"/>
<path d="M239.08 22.6101C239.107 21.8209 238.999 21.0328 238.76 20.28C238.572 19.7378 238.201 19.2779 237.71 18.9797C237.118 18.6572 236.463 18.4661 235.79 18.4197C234.99 18.3397 234.01 18.3 232.79 18.3H227.31C226.31 18.3 225.39 18.2999 224.68 18.3899C224.076 18.4293 223.48 18.554 222.91 18.76C222.484 18.9227 222.113 19.2038 221.84 19.57C221.559 19.9919 221.371 20.4693 221.29 20.9699C221.161 21.6761 221.094 22.3923 221.09 23.1101C221.09 23.9501 221.09 24.9601 221.09 26.1101C221.09 27.2601 221.09 28.3001 221.09 29.1101C221.099 29.8276 221.166 30.5429 221.29 31.2497C221.372 31.7485 221.556 32.2249 221.83 32.6496C222.103 33.0159 222.474 33.2969 222.9 33.4597C223.47 33.6657 224.066 33.7903 224.67 33.8298C225.38 33.8898 226.26 33.9197 227.3 33.9197H232.78C233.69 33.9197 234.47 33.9198 235.13 33.8498C235.701 33.8141 236.267 33.7237 236.82 33.5798C237.226 33.4778 237.607 33.294 237.94 33.0398C238.228 32.8093 238.457 32.5149 238.61 32.1799C238.774 31.7801 238.882 31.3594 238.93 30.9299C238.994 30.3622 239.025 29.7912 239.02 29.2199H241.36C241.365 29.9294 241.315 30.6384 241.21 31.3401C241.132 31.9285 240.957 32.4996 240.69 33.03C240.448 33.5206 240.108 33.956 239.69 34.3098C239.222 34.7003 238.687 35.002 238.11 35.1999C237.377 35.4621 236.615 35.6366 235.84 35.7199C234.821 35.8359 233.796 35.8895 232.77 35.8801H227.29C226.078 35.9005 224.867 35.8132 223.67 35.6198C222.822 35.4875 222.001 35.2175 221.24 34.82C220.647 34.5018 220.142 34.0411 219.77 33.4797C219.407 32.8969 219.153 32.2533 219.02 31.5798C218.853 30.77 218.759 29.9466 218.74 29.1198C218.74 28.1998 218.74 27.1898 218.74 26.1198C218.74 25.0498 218.74 23.9998 218.74 23.1198C218.759 22.2931 218.853 21.4697 219.02 20.6599C219.153 19.9864 219.407 19.3428 219.77 18.76C220.142 18.1986 220.647 17.7379 221.24 17.4197C222.001 17.0222 222.822 16.7522 223.67 16.6198C224.867 16.4265 226.078 16.3397 227.29 16.3601H232.77C233.796 16.3507 234.821 16.4038 235.84 16.5198C236.612 16.6069 237.373 16.7745 238.11 17.0198C238.683 17.2115 239.218 17.503 239.69 17.8801C240.103 18.2105 240.444 18.6223 240.69 19.0901C240.954 19.5826 241.13 20.1168 241.21 20.6697C241.317 21.3308 241.367 21.9999 241.36 22.6697L239.08 22.6101Z" fill="white"/>
<path d="M264.86 16.7297H267.2V35.55H264.86V26.9197H247.67V35.55H245.33V16.7297H247.67V24.9597H264.86V16.7297Z" fill="white"/>
<path d="M56.5698 43.4097H60.9998C61.1071 43.3948 61.2163 43.4051 61.319 43.4395C61.4217 43.4739 61.5149 43.5314 61.5915 43.608C61.6681 43.6846 61.7258 43.7778 61.7603 43.8804C61.7947 43.9831 61.8048 44.0925 61.7898 44.1998V46.8096C61.8048 46.9169 61.7947 47.0263 61.7603 47.129C61.7258 47.2317 61.6681 47.3249 61.5915 47.4014C61.5149 47.478 61.4217 47.536 61.319 47.5704C61.2163 47.6048 61.1071 47.6146 60.9998 47.5997H57.6598V49.5997H56.5698V43.4097ZM60.6998 46.6998V44.3096C60.6998 44.1796 60.6998 44.0896 60.6398 44.0596C60.5798 44.0296 60.5198 43.9996 60.3898 43.9996H57.6598V46.9996H60.3898C60.5198 46.9996 60.6098 46.9995 60.6398 46.9395C60.6806 46.8666 60.6947 46.782 60.6798 46.6998H60.6998Z" fill="#FBB03B"/>
<path d="M63.8698 47.3995V49.63H62.7798V43.4097H67.2198C67.327 43.3948 67.4363 43.4051 67.5389 43.4395C67.6416 43.4739 67.7349 43.5314 67.8115 43.608C67.888 43.6846 67.9458 43.7778 67.9802 43.8804C68.0146 43.9831 68.0247 44.0925 68.0098 44.1998V46.6099C68.0247 46.7172 68.0146 46.8261 67.9802 46.9288C67.9458 47.0315 67.888 47.1247 67.8115 47.2012C67.7349 47.2778 67.6416 47.3358 67.5389 47.3702C67.4363 47.4046 67.327 47.4145 67.2198 47.3995H66.6498L68.0598 49.63H66.9198L65.5498 47.3995H63.8698ZM63.8698 43.9996V46.8096H66.5698C66.6609 46.8217 66.7532 46.8004 66.8298 46.7496C66.8298 46.7496 66.8298 46.6296 66.8298 46.4996V44.3096C66.8298 44.1796 66.8298 44.0896 66.8298 44.0596C66.7532 44.0089 66.6609 43.9875 66.5698 43.9996H63.8698Z" fill="#FBB03B"/>
<path d="M74.1502 44.1998V48.8399C74.1652 48.9472 74.1551 49.0561 74.1207 49.1588C74.0863 49.2614 74.0285 49.3547 73.9519 49.4312C73.8753 49.5078 73.7821 49.5658 73.6794 49.6002C73.5767 49.6346 73.4675 49.6449 73.3602 49.63H69.9002C69.793 49.6449 69.6837 49.6346 69.5811 49.6002C69.4784 49.5658 69.3851 49.5078 69.3085 49.4312C69.232 49.3547 69.1742 49.2614 69.1398 49.1588C69.1054 49.0561 69.0953 48.9472 69.1102 48.8399V44.1998C69.0953 44.0925 69.1054 43.9831 69.1398 43.8804C69.1742 43.7778 69.232 43.6846 69.3085 43.608C69.3851 43.5314 69.4784 43.4739 69.5811 43.4395C69.6837 43.4051 69.793 43.3948 69.9002 43.4097H73.3602C73.4675 43.3948 73.5767 43.4051 73.6794 43.4395C73.7821 43.4739 73.8753 43.5314 73.9519 43.608C74.0285 43.6846 74.0863 43.7778 74.1207 43.8804C74.1551 43.9831 74.1652 44.0925 74.1502 44.1998ZM73.0602 48.7296V44.3096C73.0602 44.1796 73.0602 44.0896 73.0002 44.0596C72.9271 44.0096 72.8381 43.9881 72.7502 43.9996H70.5702C70.4824 43.9881 70.3933 44.0096 70.3202 44.0596C70.3202 44.0596 70.2602 44.1796 70.2602 44.3096V48.7296C70.249 48.8206 70.2703 48.9129 70.3202 48.9898C70.4018 49.014 70.4887 49.014 70.5702 48.9898H72.8002C72.8818 49.014 72.9686 49.014 73.0502 48.9898C73.0832 48.9069 73.0868 48.8148 73.0602 48.7296Z" fill="#FBB03B"/>
<path d="M76.4498 43.4099V48.7297C76.4386 48.8208 76.4598 48.9131 76.5098 48.99C76.5913 49.0142 76.6782 49.0142 76.7598 48.99H79.1498C79.2313 49.0142 79.3182 49.0142 79.3998 48.99C79.4497 48.9131 79.471 48.8208 79.4598 48.7297V43.4099H80.5698V48.8401C80.5847 48.9473 80.5746 49.0563 80.5402 49.1589C80.5058 49.2616 80.448 49.3548 80.3714 49.4314C80.2949 49.508 80.2016 49.5659 80.0989 49.6003C79.9963 49.6348 79.887 49.6451 79.7798 49.6301H76.1698C76.0625 49.6451 75.9533 49.6348 75.8506 49.6003C75.7479 49.5659 75.6546 49.508 75.5781 49.4314C75.5015 49.3548 75.4437 49.2616 75.4093 49.1589C75.3749 49.0563 75.3648 48.9473 75.3798 48.8401V43.4099H76.4498Z" fill="#FBB03B"/>
<path d="M81.8501 43.4097H86.2701C86.3773 43.3948 86.4866 43.4051 86.5893 43.4395C86.6919 43.4739 86.7852 43.5314 86.8618 43.608C86.9384 43.6846 86.9961 43.7778 87.0305 43.8804C87.0649 43.9831 87.0751 44.0925 87.0601 44.1998V48.8399C87.0751 48.9472 87.0649 49.0561 87.0305 49.1588C86.9961 49.2614 86.9384 49.3547 86.8618 49.4312C86.7852 49.5078 86.6919 49.5658 86.5893 49.6002C86.4866 49.6346 86.3773 49.6449 86.2701 49.63H81.8501V43.4097ZM85.9501 48.7296V44.3096C85.9755 44.2282 85.9755 44.141 85.9501 44.0596C85.8735 44.0089 85.7812 43.9875 85.6901 43.9996H83.0001V48.9996H85.6901C85.775 49.0246 85.8652 49.0246 85.9501 48.9996C85.9754 48.9114 85.9754 48.8178 85.9501 48.7296Z" fill="#FBB03B"/>
<path d="M89.4498 49.0398H92.5698V49.6301H88.3198V43.4099H89.4098L89.4498 49.0398Z" fill="#FBB03B"/>
<path d="M96.21 49.6301H95.11V47.6301L92.46 43.4397H93.57L95.65 46.8499L97.65 43.4397H98.75L96.22 47.6301L96.21 49.6301Z" fill="#FBB03B"/>
<path d="M106.57 45.3199H105.47V44.3199C105.47 44.1899 105.47 44.0999 105.41 44.0699C105.337 44.0198 105.248 43.9984 105.16 44.0098H102.88C102.792 44.0002 102.704 44.0215 102.63 44.0699C102.63 44.0699 102.57 44.1899 102.57 44.3199V48.7398C102.559 48.8308 102.58 48.9227 102.63 48.9996C102.712 49.0222 102.798 49.0222 102.88 48.9996H105.17C105.255 49.0246 105.345 49.0246 105.43 48.9996C105.475 48.9208 105.492 48.8296 105.48 48.7398V47.0299H103.93V46.4395H106.57V48.8497C106.585 48.9569 106.575 49.0664 106.54 49.169C106.506 49.2717 106.448 49.3649 106.372 49.4415C106.295 49.518 106.202 49.5755 106.099 49.6099C105.996 49.6444 105.887 49.6547 105.78 49.6397H102.25C102.143 49.6547 102.033 49.6444 101.931 49.6099C101.828 49.5755 101.735 49.518 101.658 49.4415C101.582 49.3649 101.524 49.2717 101.489 49.169C101.455 49.0664 101.445 48.9569 101.46 48.8497V44.2095C101.445 44.1023 101.455 43.9934 101.489 43.8907C101.524 43.788 101.582 43.6948 101.658 43.6182C101.735 43.5417 101.828 43.4837 101.931 43.4493C102.033 43.4149 102.143 43.4045 102.25 43.4195H105.78C105.887 43.4045 105.996 43.4149 106.099 43.4493C106.202 43.4837 106.295 43.5417 106.372 43.6182C106.448 43.6948 106.506 43.788 106.54 43.8907C106.575 43.9934 106.585 44.1023 106.57 44.2095V45.3199Z" fill="#FBB03B"/>
<path d="M108.83 47.3995V49.63H107.74V43.4097H112.18C112.287 43.3948 112.397 43.4051 112.499 43.4395C112.602 43.4739 112.695 43.5314 112.772 43.608C112.848 43.6846 112.906 43.7778 112.941 43.8804C112.975 43.9831 112.985 44.0925 112.97 44.1998V46.6099C112.985 46.7172 112.975 46.8261 112.941 46.9288C112.906 47.0315 112.848 47.1247 112.772 47.2012C112.695 47.2778 112.602 47.3358 112.499 47.3702C112.397 47.4046 112.287 47.4145 112.18 47.3995H111.57L112.98 49.63H111.84L110.47 47.3995H108.83ZM108.83 43.9996V46.8096H111.57C111.661 46.8217 111.754 46.8004 111.83 46.7496C111.871 46.673 111.889 46.586 111.88 46.4996V44.3096C111.89 44.2231 111.872 44.1358 111.83 44.0596C111.754 44.0089 111.661 43.9875 111.57 43.9996H108.83Z" fill="#FBB03B"/>
<path d="M119.11 44.1998V48.8399C119.125 48.9472 119.115 49.0561 119.081 49.1588C119.046 49.2614 118.988 49.3547 118.912 49.4312C118.835 49.5078 118.742 49.5658 118.639 49.6002C118.537 49.6346 118.427 49.6449 118.32 49.63H114.86C114.753 49.6449 114.644 49.6346 114.541 49.6002C114.438 49.5658 114.345 49.5078 114.269 49.4312C114.192 49.3547 114.134 49.2614 114.1 49.1588C114.065 49.0561 114.055 48.9472 114.07 48.8399V44.1998C114.055 44.0925 114.065 43.9831 114.1 43.8804C114.134 43.7778 114.192 43.6846 114.269 43.608C114.345 43.5314 114.438 43.4739 114.541 43.4395C114.644 43.4051 114.753 43.3948 114.86 43.4097H118.32C118.427 43.3948 118.537 43.4051 118.639 43.4395C118.742 43.4739 118.835 43.5314 118.912 43.608C118.988 43.6846 119.046 43.7778 119.081 43.8804C119.115 43.9831 119.125 44.0925 119.11 44.1998ZM118.02 48.7296V44.3096C118.02 44.1796 118.02 44.0896 117.96 44.0596C117.887 44.0096 117.798 43.9881 117.71 43.9996H115.48C115.35 43.9996 115.26 43.9996 115.23 44.0596C115.2 44.1196 115.17 44.1796 115.17 44.3096V48.7296C115.159 48.8206 115.18 48.9129 115.23 48.9898C115.312 49.0152 115.399 49.0152 115.48 48.9898H117.71C117.792 49.014 117.879 49.014 117.96 48.9898C118.01 48.9129 118.031 48.8206 118.02 48.7296Z" fill="#FBB03B"/>
<path d="M128.68 43.4099H129.76L127.66 49.6301H126.22L124.77 44.6301L123.32 49.6301H121.89L119.8 43.4099H120.91L122.61 48.8601L124.19 43.4099H125.36L126.92 48.8601L128.68 43.4099Z" fill="#FBB03B"/>
<path d="M134.89 43.4099H135.89V49.6301H134.84L131.55 44.6301V49.6301H130.55V43.4099H131.64L134.89 48.4099V43.4099Z" fill="#FBB03B"/>
<path d="M139.62 43.4099H140.74V49.6301H139.62V43.4099Z" fill="#FBB03B"/>
<path d="M146.57 43.4099H147.57V49.6301H146.57L143.28 44.6301V49.6301H142.28V43.4099H143.37L146.62 48.4099L146.57 43.4099Z" fill="#FBB03B"/>
<path d="M151.21 43.4097H155.64C155.747 43.3948 155.856 43.4051 155.959 43.4395C156.062 43.4739 156.155 43.5314 156.232 43.608C156.308 43.6846 156.366 43.7778 156.4 43.8804C156.435 43.9831 156.445 44.0925 156.43 44.1998V46.8096C156.445 46.9169 156.435 47.0263 156.4 47.129C156.366 47.2317 156.308 47.3249 156.232 47.4014C156.155 47.478 156.062 47.536 155.959 47.5704C155.856 47.6048 155.747 47.6146 155.64 47.5997H152.3V49.5997H151.21V43.4097ZM155.34 46.6998V44.3096C155.34 44.1796 155.34 44.0896 155.28 44.0596C155.207 44.0096 155.118 43.9881 155.03 43.9996H152.3V46.9996H155.03C155.073 47.0121 155.119 47.0132 155.162 47.002C155.205 46.9909 155.245 46.9683 155.277 46.9366C155.308 46.9049 155.331 46.8653 155.342 46.8219C155.353 46.7784 155.353 46.7326 155.34 46.6895V46.6998Z" fill="#FBB03B"/>
<path d="M158.57 47.3995V49.63H157.48V43.4097H161.92C162.027 43.3948 162.136 43.4051 162.239 43.4395C162.342 43.4739 162.435 43.5314 162.512 43.608C162.588 43.6846 162.646 43.7778 162.68 43.8804C162.715 43.9831 162.725 44.0925 162.71 44.1998V46.6099C162.725 46.7172 162.715 46.8261 162.68 46.9288C162.646 47.0315 162.588 47.1247 162.512 47.2012C162.435 47.2778 162.342 47.3358 162.239 47.3702C162.136 47.4046 162.027 47.4145 161.92 47.3995H161.35L162.76 49.63H161.57L160.2 47.3995H158.57ZM158.57 43.9996V46.8096H161.31C161.401 46.8217 161.493 46.8004 161.57 46.7496C161.594 46.668 161.594 46.5812 161.57 46.4996V44.3096C161.595 44.2282 161.595 44.141 161.57 44.0596C161.493 44.0089 161.401 43.9875 161.31 43.9996H158.57Z" fill="#FBB03B"/>
<path d="M168.46 49.6301L168 48.3997H164.77L164.31 49.6301H163.23L165.63 43.4099H167.14L169.55 49.6301H168.46ZM164.99 47.8098H167.77L166.38 44.1199L164.99 47.8098Z" fill="#FBB03B"/>
<path d="M175.32 45.3199H174.22V44.3199C174.22 44.1899 174.22 44.0999 174.16 44.0699C174.087 44.0198 173.998 43.9984 173.91 44.0098H171.63C171.542 44.0002 171.454 44.0215 171.38 44.0699C171.38 44.0699 171.32 44.1899 171.32 44.3199V48.7398C171.309 48.8308 171.33 48.9227 171.38 48.9996C171.462 49.0222 171.548 49.0222 171.63 48.9996H173.92C174.005 49.0246 174.095 49.0246 174.18 48.9996C174.203 48.9145 174.203 48.8249 174.18 48.7398V47.0299H172.63V46.4395H175.27V48.8497C175.285 48.9569 175.275 49.0664 175.24 49.169C175.206 49.2717 175.148 49.3649 175.072 49.4415C174.995 49.518 174.902 49.5755 174.799 49.6099C174.697 49.6444 174.587 49.6547 174.48 49.6397H170.95C170.843 49.6547 170.734 49.6444 170.631 49.6099C170.528 49.5755 170.435 49.518 170.358 49.4415C170.282 49.3649 170.224 49.2717 170.19 49.169C170.155 49.0664 170.145 48.9569 170.16 48.8497V44.2095C170.145 44.1023 170.155 43.9934 170.19 43.8907C170.224 43.788 170.282 43.6948 170.358 43.6182C170.435 43.5417 170.528 43.4837 170.631 43.4493C170.734 43.4149 170.843 43.4045 170.95 43.4195H174.57C174.677 43.4045 174.787 43.4149 174.889 43.4493C174.992 43.4837 175.085 43.5417 175.162 43.6182C175.238 43.6948 175.296 43.788 175.33 43.8907C175.365 43.9934 175.375 44.1023 175.36 44.2095L175.32 45.3199Z" fill="#FBB03B"/>
<path d="M177.57 43.4099V48.7297C177.559 48.8208 177.58 48.9131 177.63 48.99C177.711 49.0154 177.799 49.0154 177.88 48.99H180.27C180.352 49.0142 180.439 49.0142 180.52 48.99C180.57 48.9131 180.591 48.8208 180.58 48.7297V43.4099H181.66V48.8401C181.675 48.9473 181.665 49.0563 181.631 49.1589C181.596 49.2616 181.538 49.3548 181.462 49.4314C181.385 49.508 181.292 49.5659 181.189 49.6003C181.087 49.6348 180.977 49.6451 180.87 49.6301H177.26C177.153 49.6451 177.044 49.6348 176.941 49.6003C176.838 49.5659 176.745 49.508 176.668 49.4314C176.592 49.3548 176.534 49.2616 176.5 49.1589C176.465 49.0563 176.455 48.9473 176.47 48.8401V43.4099H177.57Z" fill="#FBB03B"/>
<path d="M184.05 49.0398H187.46V49.6301H182.93V43.4099H187.32V43.9998H184.05V46.1399H186.91V46.7297H184.05V49.0398Z" fill="#FBB03B"/>
<path d="M188.01 51.01V48.3801H189.21V49.05L188.41 51.05L188.01 51.01Z" fill="#FBB03B"/>
<path d="M197.4 45.53H196.3V44.3098C196.325 44.2284 196.325 44.1412 196.3 44.0598C196.223 44.0098 196.131 43.9885 196.04 43.9997H193.77C193.682 43.9882 193.593 44.0097 193.52 44.0598C193.52 44.0598 193.46 44.1798 193.46 44.3098V48.7297C193.449 48.8207 193.47 48.913 193.52 48.9899C193.602 49.0141 193.688 49.0141 193.77 48.9899H196.04C196.083 49.0065 196.13 49.0103 196.176 49.0007C196.221 48.991 196.263 48.968 196.296 48.9352C196.328 48.9024 196.351 48.861 196.361 48.8156C196.37 48.7702 196.367 48.7232 196.35 48.6799V47.4597H197.45V48.7897C197.465 48.897 197.455 49.0064 197.42 49.1091C197.386 49.2117 197.328 49.305 197.252 49.3815C197.175 49.4581 197.082 49.5161 196.979 49.5505C196.876 49.5849 196.767 49.5947 196.66 49.5798H193.14C193.033 49.5947 192.923 49.5849 192.821 49.5505C192.718 49.5161 192.625 49.4581 192.548 49.3815C192.472 49.305 192.414 49.2117 192.38 49.1091C192.345 49.0064 192.335 48.897 192.35 48.7897V44.1496C192.335 44.0424 192.345 43.9334 192.38 43.8307C192.414 43.7281 192.472 43.6349 192.548 43.5583C192.625 43.4817 192.718 43.4238 192.821 43.3893C192.923 43.3549 193.033 43.3451 193.14 43.36H196.57C196.677 43.3451 196.786 43.3549 196.889 43.3893C196.992 43.4238 197.085 43.4817 197.162 43.5583C197.238 43.6349 197.296 43.7281 197.33 43.8307C197.365 43.9334 197.375 44.0424 197.36 44.1496L197.4 45.53Z" fill="#FBB03B"/>
<path d="M203.24 43.4099V43.9998L199.29 48.9998H203.14V49.5901H198.04V48.9998L201.99 43.9998H198.15V43.4099H203.24Z" fill="#FBB03B"/>
<path d="M205.37 49.0398H208.78V49.6301H204.25V43.4099H208.64V43.9998H205.37V46.1399H208.23V46.7297H205.37V49.0398Z" fill="#FBB03B"/>
<path d="M214.69 45.53H213.57V44.3098C213.595 44.2284 213.595 44.1412 213.57 44.0598C213.493 44.0098 213.401 43.9885 213.31 43.9997H211.04C210.952 43.99 210.864 44.0113 210.79 44.0598C210.79 44.0598 210.73 44.1798 210.73 44.3098V48.7297C210.719 48.8207 210.74 48.913 210.79 48.9899C210.872 49.0125 210.958 49.0125 211.04 48.9899H213.31C213.353 49.0065 213.4 49.0103 213.446 49.0007C213.491 48.991 213.533 48.968 213.566 48.9352C213.598 48.9024 213.621 48.861 213.631 48.8156C213.64 48.7702 213.637 48.7232 213.62 48.6799V47.4597H214.72V48.7897C214.735 48.897 214.725 49.0064 214.69 49.1091C214.656 49.2117 214.598 49.305 214.522 49.3815C214.445 49.4581 214.352 49.5161 214.249 49.5505C214.147 49.5849 214.037 49.5947 213.93 49.5798H210.41C210.303 49.5947 210.194 49.5849 210.091 49.5505C209.988 49.5161 209.895 49.4581 209.818 49.3815C209.742 49.305 209.684 49.2117 209.65 49.1091C209.615 49.0064 209.605 48.897 209.62 48.7897V44.1496C209.605 44.0424 209.615 43.9334 209.65 43.8307C209.684 43.7281 209.742 43.6349 209.818 43.5583C209.895 43.4817 209.988 43.4238 210.091 43.3893C210.194 43.3549 210.303 43.3451 210.41 43.36H213.93C214.037 43.3451 214.147 43.3549 214.249 43.3893C214.352 43.4238 214.445 43.4817 214.522 43.5583C214.598 43.6349 214.656 43.7281 214.69 43.8307C214.725 43.9334 214.735 44.0424 214.72 44.1496L214.69 45.53Z" fill="#FBB03B"/>
<path d="M220.21 43.4099H221.32V49.6301H220.21V46.8098H216.82V49.6301H215.72V43.4099H216.82V46.22H220.21V43.4099Z" fill="#FBB03B"/>
<path d="M226.04 47.3995V49.63H224.95V43.4097H229.39C229.497 43.3948 229.607 43.4051 229.709 43.4395C229.812 43.4739 229.905 43.5314 229.982 43.608C230.058 43.6846 230.116 43.7778 230.151 43.8804C230.185 43.9831 230.195 44.0925 230.18 44.1998V46.6099C230.195 46.7172 230.185 46.8261 230.151 46.9288C230.116 47.0315 230.058 47.1247 229.982 47.2012C229.905 47.2778 229.812 47.3358 229.709 47.3702C229.607 47.4046 229.497 47.4145 229.39 47.3995H228.82L230.23 49.63H229.09L227.72 47.3995H226.04ZM226.04 43.9996V46.8096H228.78C228.871 46.8217 228.964 46.8004 229.04 46.7496C229.064 46.668 229.064 46.5812 229.04 46.4996V44.3096C229.066 44.2282 229.066 44.141 229.04 44.0596C228.964 44.0089 228.871 43.9875 228.78 43.9996H226.04Z" fill="#FBB03B"/>
<path d="M232.5 49.0398H235.91V49.6301H231.38V43.4099H235.77V43.9998H232.5V46.1399H235.36V46.7297H232.5V49.0398Z" fill="#FBB03B"/>
<path d="M236.82 43.4097H241.25C241.357 43.3948 241.466 43.4051 241.569 43.4395C241.672 43.4739 241.765 43.5314 241.842 43.608C241.918 43.6846 241.976 43.7778 242.01 43.8804C242.045 43.9831 242.055 44.0925 242.04 44.1998V46.8096C242.055 46.9169 242.045 47.0263 242.01 47.129C241.976 47.2317 241.918 47.3249 241.842 47.4014C241.765 47.478 241.672 47.536 241.569 47.5704C241.466 47.6048 241.357 47.6146 241.25 47.5997H237.91V49.5997H236.82V43.4097ZM240.95 46.6998V44.3096C240.95 44.1796 240.95 44.0896 240.89 44.0596C240.817 44.0096 240.728 43.9881 240.64 43.9996H237.91V46.9996H240.64C240.683 47.0121 240.728 47.0132 240.772 47.002C240.815 46.9909 240.855 46.9683 240.887 46.9366C240.918 46.9049 240.941 46.8653 240.952 46.8219C240.963 46.7784 240.962 46.7326 240.95 46.6895V46.6998Z" fill="#FBB03B"/>
<path d="M244.05 43.4099V48.7297C244.039 48.8208 244.06 48.9131 244.11 48.99C244.191 49.0154 244.279 49.0154 244.36 48.99H246.75C246.832 49.0142 246.918 49.0142 247 48.99C247.05 48.9131 247.071 48.8208 247.06 48.7297V43.4099H248.14V48.8401C248.155 48.9473 248.145 49.0563 248.111 49.1589C248.076 49.2616 248.018 49.3548 247.942 49.4314C247.865 49.508 247.772 49.5659 247.669 49.6003C247.567 49.6348 247.457 49.6451 247.35 49.6301H243.74C243.633 49.6451 243.524 49.6348 243.421 49.6003C243.318 49.5659 243.225 49.508 243.148 49.4314C243.072 49.3548 243.014 49.2616 242.98 49.1589C242.945 49.0563 242.935 48.9473 242.95 48.8401V43.4099H244.05Z" fill="#FBB03B"/>
<path d="M249.45 43.4097H253.85C253.957 43.3948 254.067 43.4051 254.169 43.4395C254.272 43.4739 254.365 43.5314 254.442 43.608C254.518 43.6846 254.576 43.7778 254.611 43.8804C254.645 43.9831 254.655 44.0925 254.64 44.1998V45.9698C254.64 46.3198 254.49 46.5099 254.18 46.5299C254.246 46.5307 254.312 46.5454 254.372 46.5733C254.432 46.6012 254.486 46.6414 254.529 46.6915C254.572 46.7415 254.605 46.8004 254.624 46.8638C254.643 46.9273 254.649 46.9939 254.64 47.0596V48.8399C254.655 48.9472 254.645 49.0561 254.611 49.1588C254.576 49.2614 254.518 49.3547 254.442 49.4312C254.365 49.5078 254.272 49.5658 254.169 49.6002C254.067 49.6346 253.957 49.6449 253.85 49.63H249.45V43.4097ZM253.57 45.9097V44.3096C253.58 44.2231 253.562 44.1358 253.52 44.0596C253.443 44.0097 253.351 43.9884 253.26 43.9996H250.57V46.2198H253.28C253.323 46.2364 253.371 46.2402 253.416 46.2305C253.461 46.2209 253.503 46.1979 253.536 46.1651C253.569 46.1323 253.591 46.0908 253.601 46.0455C253.61 46.0001 253.607 45.953 253.59 45.9097H253.57ZM253.57 48.7496V47.1397C253.579 47.0533 253.561 46.9663 253.52 46.8897C253.443 46.8398 253.351 46.8185 253.26 46.8297H250.57V49.0596H253.26C253.349 49.0817 253.442 49.0817 253.53 49.0596C253.56 49.0146 253.58 48.9631 253.587 48.9093C253.594 48.8555 253.588 48.8008 253.57 48.7496Z" fill="#FBB03B"/>
<path d="M257.03 49.0398H260.19V49.6301H255.94V43.4099H257.03V49.0398Z" fill="#FBB03B"/>
<path d="M261 43.4099H262.12V49.6301H261V43.4099Z" fill="#FBB03B"/>
<path d="M268.57 45.53H267.47V44.3098C267.48 44.2233 267.462 44.1359 267.42 44.0598C267.343 44.0098 267.251 43.9885 267.16 43.9997H264.89C264.802 43.9882 264.713 44.0097 264.64 44.0598C264.64 44.0598 264.58 44.1798 264.58 44.3098V48.7297C264.569 48.8207 264.59 48.913 264.64 48.9899C264.722 49.0141 264.809 49.0141 264.89 48.9899H267.16C267.203 49.0065 267.251 49.0103 267.296 49.0007C267.341 48.991 267.383 48.968 267.416 48.9352C267.449 48.9024 267.471 48.861 267.481 48.8156C267.49 48.7702 267.487 48.7232 267.47 48.6799V47.4597H268.57V48.7897C268.585 48.897 268.575 49.0064 268.541 49.1091C268.506 49.2117 268.448 49.305 268.372 49.3815C268.295 49.4581 268.202 49.5161 268.099 49.5505C267.997 49.5849 267.887 49.5947 267.78 49.5798H264.26C264.153 49.5947 264.044 49.5849 263.941 49.5505C263.838 49.5161 263.745 49.4581 263.668 49.3815C263.592 49.305 263.534 49.2117 263.5 49.1091C263.465 49.0064 263.455 48.897 263.47 48.7897V44.1496C263.455 44.0424 263.465 43.9334 263.5 43.8307C263.534 43.7281 263.592 43.6349 263.668 43.5583C263.745 43.4817 263.838 43.4238 263.941 43.3893C264.044 43.3549 264.153 43.3451 264.26 43.36H267.78C267.887 43.3451 267.997 43.3549 268.099 43.3893C268.202 43.4238 268.295 43.4817 268.372 43.5583C268.448 43.6349 268.506 43.7281 268.541 43.8307C268.575 43.9334 268.585 44.0424 268.57 44.1496V45.53Z" fill="#FBB03B"/>
<path d="M13.2197 12.89C14.6934 12.8209 16.1506 12.5483 17.5497 12.0799C18.6584 11.831 19.635 11.1786 20.2897 10.2498C20.5197 9.86985 20.6697 9.42993 20.5497 9.32993C20.4297 9.22993 19.1897 10.47 18.7197 10.2C18.4997 10.07 18.4997 9.63022 18.5597 9.38022C18.6246 9.17938 18.7312 8.99406 18.8725 8.83725C19.0138 8.68044 19.1866 8.55551 19.3797 8.47006C20.1197 8.02006 20.4997 8.14993 21.9197 7.82993C22.9197 7.60993 24.0297 7.24985 24.0297 7.24985C24.7916 6.98506 25.5173 6.62575 26.1897 6.18003C26.7482 5.67515 27.251 5.11177 27.6897 4.49985C27.9211 4.10536 28.0452 3.65737 28.0497 3.20004C28.0497 3.20004 28.0497 2.94975 27.9197 2.89975C27.7897 2.84975 27.5397 3.50979 26.7297 4.18979C25.9197 4.86979 22.3297 5.89975 22.3297 5.89975C22.3297 5.89975 20.3297 6.24983 19.2797 6.47983C18.6567 6.61016 18.0498 6.80833 17.4697 7.07016C15.8197 7.55016 15.8697 8.72006 15.8697 8.72006C16.8697 8.72006 17.1397 9.32975 16.8097 10.1498C16.4797 10.9698 14.8097 10.8099 14.8097 10.8099C14.4587 10.6072 14.1846 10.2942 14.0297 9.91977C13.9491 9.51621 13.9671 9.09959 14.082 8.70444C14.1968 8.30928 14.4053 7.94722 14.6897 7.64975C15.1897 7.03975 15.5997 6.96004 17.3097 5.95004C17.9097 5.59004 18.3997 5.27993 18.7097 5.07993L19.4897 4.59018C20.0646 4.11222 20.4597 3.45256 20.6097 2.72006C20.6097 2.72006 20.6097 2.02977 20.4197 1.91977C20.2297 1.80977 20.3297 2.13016 20.2897 2.32016C20.2318 2.48507 20.1437 2.63741 20.0297 2.76987C19.2666 3.33119 18.457 3.8263 17.6097 4.24985C17.1797 4.44985 14.8097 5.63999 14.8097 5.63999C13.7866 6.04553 12.9039 6.74055 12.2697 7.63999C11.5593 8.53958 10.9459 9.51153 10.4397 10.5399C9.84586 11.9361 9.62532 13.4629 9.79967 14.9701C10.6736 13.9324 11.8774 13.2263 13.2097 12.9701" fill="#FBB03A"/>
<path d="M23.3997 21.41C23.3997 21.41 27.7697 18.5102 28.8897 16.6302C29.8868 15.3884 30.7546 14.0482 31.4797 12.6302C31.7597 12.0202 32.0297 11.3602 32.2897 10.6302C32.601 9.75178 32.8648 8.85697 33.0797 7.95007C32.6462 8.61169 32.1434 9.22524 31.5797 9.78015C31.2473 10.1101 30.8931 10.4174 30.5197 10.7001C30.2499 10.8862 29.9575 11.0371 29.6497 11.1498C28.9774 11.3741 28.2538 11.395 27.5697 11.2098C27.4752 10.6085 27.5478 9.99291 27.7797 9.43005C27.9514 9.05755 28.1884 8.71885 28.4797 8.43005C28.6719 8.08505 28.9801 7.81932 29.3497 7.68005C29.7997 7.54005 30.4197 7.57023 30.5797 7.86023C30.6259 8.04742 30.6259 8.24286 30.5797 8.43005L30.2697 9.28015L31.3397 8.43005C32.06 7.47173 32.5288 6.34851 32.7035 5.16248C32.8782 3.97644 32.7531 2.7653 32.3397 1.64001L31.6897 0.0198975C31.3097 1.0799 30.9397 2.14984 30.5597 3.20984C30.1313 4.00988 29.622 4.76383 29.0397 5.45984C28.4035 6.27936 27.6563 7.00649 26.8197 7.62C25.5176 8.51275 24.0036 9.04711 22.4297 9.1698C23.7399 10.518 24.6324 12.2163 24.9997 14.0599C25.4487 16.6313 24.8745 19.2764 23.3997 21.4301" fill="#FBB03A"/>
<path d="M36.5701 5.99011L37.7001 7.99011C37.4688 9.08672 37.0886 10.1464 36.5701 11.14C36.5701 11.14 36.4001 11.4401 36.2101 11.7401C35.7601 12.4401 34.2101 14.7399 29.9201 17.8099C29.3468 18.2614 28.7382 18.666 28.1001 19.0199C28.1001 19.0199 28.4601 18.7101 29.0001 18.2001C29.0001 18.2001 29.4801 17.7401 31.0001 15.9701C32.5461 14.0567 33.6369 11.8167 34.1901 9.4198C34.6407 7.45131 34.712 5.41497 34.4001 3.4198L36.6301 5.99988" fill="#FBB03A"/>
<path d="M38.96 5.80017C38.96 5.80017 43.08 9.91982 42.88 13.9398C42.88 13.9398 43.18 18.2102 41.3 19.5302H40.93C40.93 19.5302 39.16 17.5302 37.74 17.8002C37.74 17.8002 35.91 17.5999 35.91 19.0199C35.9251 19.4414 36.0627 19.8497 36.306 20.1942C36.5493 20.5388 36.8878 20.8046 37.28 20.9598C38.122 21.4088 39.0887 21.5672 40.03 21.41L41.3 21.16C40.8563 21.6584 40.2696 22.0076 39.62 22.16C38.35 22.56 35.2 21.8998 35.2 21.8998C34.2179 21.5148 33.2166 21.181 32.2 20.8998C29.02 20.4098 26.65 21.1499 26.55 20.7899C26.45 20.4299 28.46 19.7902 30.92 18.3002C32.1953 17.5203 33.3999 16.6301 34.52 15.64C38.01 11.56 38.52 10.1498 38.52 10.1498C39.0216 8.73703 39.1693 7.22316 38.95 5.74011" fill="#FBB03A"/>
<path d="M25.5698 22.5803C25.5698 22.5803 33.7098 25.6903 36.2498 33.5803L36.5598 33.2302C36.5598 33.2302 36.3598 31.0906 37.4798 31.0906C38.5998 31.0906 39.0998 33.5803 39.0998 33.5803C39.4452 34.5816 39.9085 35.5385 40.4798 36.4304C41.0042 37.1404 41.7876 37.6146 42.6598 37.7502C41.8588 36.8862 41.3757 35.7754 41.2898 34.6003C41.1398 32.6003 41.1598 30.7805 41.1598 30.7805C41.2311 29.7885 41.063 28.7941 40.6698 27.8806C40.3791 27.1838 39.8885 26.5883 39.2598 26.1701L38.6098 25.7102L39.0298 26.7102C39.0298 26.7102 39.2898 27.2106 38.7998 27.3606C38.3098 27.5106 37.7998 26.6701 37.7998 26.6701C37.7998 26.6701 36.8698 24.7302 38.6698 24.5002C38.6698 24.5002 38.7298 24.1204 34.1398 22.9304C32.9695 22.5659 31.7619 22.3345 30.5398 22.2405C29.6389 22.0592 28.7108 22.0592 27.8098 22.2405L29.8898 22.7805C31.4721 23.3532 32.9823 24.1083 34.3898 25.0305C34.9698 25.4805 35.4998 25.9504 35.4998 25.9504L36.2198 26.6003C36.2198 26.6003 37.4398 27.4703 36.4898 28.3103C36.1988 28.2442 35.9168 28.1437 35.6498 28.0105C35.2969 27.8103 34.9623 27.5794 34.6498 27.3205L32.0998 25.4504L29.0998 23.6203L26.0998 22.4802L25.5698 22.5803Z" fill="#FBB03A"/>
<path d="M24.1101 15.6401C24.1101 15.6401 23.1101 18.59 22.4301 19.02C22.4301 19.02 21.2501 20.79 20.3701 21.02C19.5845 21.5878 18.7041 22.0111 17.7701 22.27L17.5801 22.54C18.2039 22.5307 18.8252 22.6218 19.4201 22.8101C20.2501 23.1201 23.9901 24.4101 25.0601 25.3701C25.0601 25.3701 29.3001 28.6101 29.6001 29.3701C30.6016 30.5476 31.4951 31.8124 32.2701 33.1499C32.2701 33.1499 33.1901 35.5503 33.3801 36.3203C33.3801 36.3203 34.0301 39.9002 33.7601 40.7002C33.7601 40.7002 33.7601 41.7 35.2501 37.96C35.2501 37.96 35.9001 35.21 35.2501 33.96C34.6919 32.7079 33.9615 31.5402 33.0801 30.4902C31.7448 28.7009 30.1778 27.0969 28.4201 25.7202L23.9501 22.8203L21.5701 21.71C22.3582 20.9103 23.0313 20.0051 23.5701 19.02C23.8794 17.911 24.1099 16.7816 24.2601 15.6401H24.1101Z" fill="#FBB03A"/>
<path d="M16.8599 23.5801C16.8599 23.5801 22.4299 24.7201 23.7299 26.0601C23.7299 26.0601 26.1099 27.8103 26.5599 28.7603C27.2467 29.6055 27.7537 30.5823 28.0499 31.6304C28.0499 31.6304 28.6099 33.6302 29.1799 33.9902C29.1849 34.1051 29.2189 34.2168 29.2789 34.3149C29.3388 34.4131 29.4226 34.4943 29.5225 34.5513C29.6224 34.6082 29.7351 34.6391 29.85 34.6406C29.965 34.6422 30.0785 34.6143 30.1799 34.5601C31.0199 34.2601 30.4799 32.88 30.4399 32.73C31.0333 33.3402 31.49 34.0698 31.7799 34.8701C31.8799 35.3201 32.0299 35.5603 32.1799 36.0303C32.3653 36.6835 32.4859 37.3534 32.5399 38.0303C32.6714 40.166 32.6447 42.3082 32.4599 44.4399C32.4599 44.4399 32.5099 41.73 32.5399 41.73C32.5497 41.8565 32.5497 41.9839 32.5399 42.1104C32.5399 42.8904 32.4799 43.6599 32.4399 44.4399C32.0985 42.5997 31.5028 40.8162 30.6699 39.1401C29.9556 37.7091 29.0763 36.3666 28.0499 35.1401L24.7299 31.7002C24.7299 31.7002 23.6399 30.2499 23.9499 29.1499C23.9499 29.1499 24.6399 30.4399 25.2499 30.4399C25.2499 30.4399 26.4199 30.4404 25.5299 29.1104C24.9436 28.2412 24.201 27.4882 23.3399 26.8901C22.5656 26.2758 21.7234 25.7524 20.8299 25.3301L20.4099 25.1802L21.4099 26.1304L22.7399 27.4302C22.3697 28.7728 22.5346 30.2066 23.1999 31.4302C23.7059 32.2888 24.449 32.9833 25.3399 33.4302C25.1461 33.4725 24.9482 33.4927 24.7499 33.4902C24.1931 33.467 23.6607 33.2554 23.2399 32.8901C22.2828 32.1213 21.5448 31.1144 21.0999 29.9702L20.6499 28.54C20.3541 27.5551 19.9161 26.6187 19.3499 25.7603L16.8599 23.5801Z" fill="#FBB03A"/>
<path d="M17.57 34.3301C18.1 34.2201 18.66 34.12 19.26 34.04C20.1686 33.9191 21.0835 33.8526 22 33.8403C22.6295 33.854 23.256 33.931 23.87 34.0703C24.5591 34.2248 25.2296 34.4524 25.87 34.75C25.9086 35.5092 26.0637 36.2582 26.33 36.9702C26.33 36.9702 27.59 39.7102 28.92 39.9702C28.92 39.9702 29.69 40.4302 27.4 39.9702C26.6416 39.6388 25.9856 39.1103 25.5 38.4399C25.5 38.4399 24.71 36.7999 23.92 36.4399C23.92 36.4399 22.92 35.1503 22.17 35.0703C22.28 35.1803 22.43 35.3501 22.61 35.5601C23.3254 36.4087 23.9334 37.3427 24.42 38.3403C24.7642 39.0054 25.1872 39.6261 25.68 40.1899L25.78 40.29L25.34 39.8604C25.7853 40.3211 26.318 40.688 26.907 40.9404C27.4959 41.1928 28.1293 41.3253 28.77 41.3301C28.77 41.3301 29.99 41.0504 30.07 40.8804C30.15 40.7104 29.99 41.0503 29.99 41.0503C29.99 41.0503 31.1 41.4001 31.25 43.6201C31.4208 44.4778 31.3267 45.367 30.98 46.1699C30.9334 45.8175 30.8178 45.4777 30.64 45.1699C30.3436 44.6871 29.9126 44.3015 29.4 44.0601C29.06 43.9001 28.68 43.7403 28.28 43.5903C27.7207 43.4023 27.1494 43.2517 26.57 43.1401C26.57 43.1401 24.43 43.2103 23.48 42.2603C22.7156 41.7592 22.1691 40.9874 21.95 40.1001C21.95 40.1001 21.8 40.3201 21.72 38.8301C21.7507 38.5609 21.7507 38.2892 21.72 38.02C21.6815 37.5198 21.5492 37.0314 21.33 36.5801C21.33 36.5801 20.76 35.2402 20.26 35.4302C20.6513 35.9519 20.8777 36.5786 20.91 37.23C20.7975 38.1833 20.7975 39.1467 20.91 40.1001C21.06 40.6201 21.67 42.8001 22.74 43.1001C23.6921 43.4977 24.7088 43.7179 25.74 43.75C25.74 43.75 25.93 44.1302 25.01 44.9702C24.6609 45.4184 24.2175 45.784 23.7111 46.0415C23.2047 46.299 22.6478 46.4419 22.08 46.46C20.9378 46.5198 19.8166 46.1366 18.95 45.3901C18.5552 45.1825 18.2206 44.8764 17.9789 44.5015C17.7371 44.1265 17.5963 43.6954 17.57 43.25C17.274 42.5039 17.1943 41.6893 17.34 40.8999C17.491 40.1439 17.7646 39.4177 18.15 38.75C18.511 37.9737 18.6922 37.126 18.68 36.27C18.5983 35.9876 18.4912 35.7133 18.36 35.4502C18.1526 35.0495 17.8863 34.6822 17.57 34.3604" fill="#FBB03A"/>
<path d="M12.0499 34.49C12.0499 34.49 13.3899 34.56 13.3499 35.49C13.3257 36.2046 13.1004 36.8978 12.6999 37.49C12.3032 38.214 11.9944 38.9828 11.7799 39.7801C11.7799 40.3901 11.7799 39.97 11.7799 39.97C11.5499 40.7671 11.5499 41.6129 11.7799 42.41C11.9759 43.0529 12.3182 43.6418 12.7799 44.1302C12.7799 44.1302 14.3499 45.6199 15.1899 45.5799C15.1899 45.5799 13.6999 44.3998 13.6599 43.7098C13.3172 43.0266 13.2184 42.2468 13.3799 41.4998C13.4404 40.7733 13.6265 40.0626 13.9299 39.3997L14.5399 37.7801C14.5709 37.5436 14.6492 37.3158 14.7699 37.1102L14.9999 37.0301V38.2898C14.9672 38.7853 14.8236 39.2673 14.5799 39.7C14.375 40.1688 14.2825 40.6788 14.3099 41.1897C14.2487 41.7832 14.3135 42.3832 14.4999 42.95C14.4999 42.95 14.8099 44.32 15.6499 44.66C15.259 43.7467 15.1242 42.7442 15.2599 41.7601C15.4582 40.9369 15.8374 40.1683 16.3699 39.5101C16.8838 39.0256 17.2864 38.4353 17.5499 37.7801C17.8371 37.2623 17.9192 36.6553 17.7799 36.0799C17.7503 35.8925 17.693 35.7105 17.6099 35.5398C17.5179 35.3457 17.3965 35.1672 17.2499 35.0101C17.2826 35.1159 17.2933 35.2271 17.2813 35.3372C17.2692 35.4473 17.2347 35.5535 17.1799 35.6497C17.1123 35.7477 17.0248 35.8304 16.9232 35.8924C16.8215 35.9544 16.708 35.9947 16.5899 36.0101C16.3211 36.0321 16.0514 35.9803 15.8099 35.8602C15.5699 35.7379 15.369 35.5508 15.2299 35.3201C14.9861 34.8539 14.5755 34.4968 14.0799 34.3201C14.0799 34.3201 12.7499 33.8201 12.0199 34.5101" fill="#FBB03A"/>
<path d="M1.77977 22.69C1.77977 22.69 3.77977 20.6001 5.23977 20.6001C6.60324 20.2627 8.00552 20.108 9.40976 20.1402C10.4087 19.8796 11.342 19.4128 12.1498 18.77C11.4385 18.9818 10.681 18.9818 9.96977 18.77C9.96977 18.77 10.4298 18.8699 11.5898 17.6499C12.0326 17.1236 12.5286 16.6447 13.0698 16.2202C13.0698 16.2202 13.6298 15.3602 14.1898 15.9702V16.8404L16.1898 16.1699L17.5998 15.6402L19.3998 14.3404C19.3998 14.3404 20.5698 13.5804 20.9198 13.6304C21.2698 13.6804 21.5298 13.4302 21.5298 14.9302C21.5072 16.3031 21.1207 17.6456 20.4098 18.8203C19.9598 19.3803 18.4798 20.8203 18.4798 20.8203C18.4798 20.8203 19.0898 21.0801 20.9698 19.0401C21.3179 18.7412 21.633 18.406 21.9098 18.0401C22.8647 16.6785 23.3715 15.0532 23.3598 13.3902C23.2798 12.8802 23.1898 12.3904 23.1098 11.8604C23.1098 11.8604 23.6698 11.2002 19.7998 12.2202C18.3738 12.7406 17.0275 13.4574 15.7998 14.3501C15.0253 14.4814 14.2342 14.4814 13.4598 14.3501C12.3674 14.3565 11.3096 14.7336 10.4598 15.4199C10.4598 15.4199 7.24977 17.5599 5.71977 17.4199C5.71977 17.4199 5.47977 17.7603 6.17977 19.0503C5.18629 19.2217 4.2552 19.6509 3.47956 20.2949C2.70392 20.939 2.11089 21.7752 1.75977 22.7202" fill="#FBB03A"/>
<path d="M4.02988 30.46C4.02988 30.46 3.25988 27.9703 5.09988 27.2603C5.09988 27.2603 6.09988 26.4902 8.44988 26.7002C8.44988 26.7002 8.69988 25.5302 6.15988 25.7002C5.84343 25.7333 5.52945 25.7869 5.21988 25.8604C4.68188 25.9834 4.15882 26.164 3.65988 26.3999C3.31162 26.418 2.96525 26.3383 2.65988 26.1699C2.4083 26.0361 2.19231 25.8445 2.02988 25.6104L1.69988 25.25C1.27831 24.9745 0.983375 24.5432 0.879881 24.0503C0.820173 23.6942 0.868952 23.328 1.01988 23C0.776101 23.1283 0.561443 23.3054 0.389364 23.5205C0.217286 23.7356 0.0914969 23.984 0.0198802 24.25C-0.00923091 24.4087 -0.00923091 24.5713 0.0198802 24.73C0.463045 25.4426 0.971931 26.1122 1.53988 26.73L2.70988 27.9302C2.81 28.6145 3.07041 29.2655 3.46988 29.8301C3.63694 30.0628 3.82799 30.2774 4.03988 30.4702" fill="#FBB03A"/>
<path d="M8.45965 36.4199C7.54173 34.7975 7.12747 32.9387 7.26965 31.0801C7.26965 31.0801 9.45965 30.3699 9.50965 28.9399C9.50965 28.9399 8.74965 30.8199 5.38965 29.3999L5.99965 31.0801C5.99965 31.0801 6.74965 35.8099 8.45965 36.4199Z" fill="#FBB03A"/>
<path d="M9.09977 36.7202C9.09977 36.7202 9.45977 33.3702 11.5998 32.7202C13.7398 32.0702 11.5998 33.6104 11.5998 33.6104C13.0447 33.0845 14.594 32.9094 16.1198 33.1001C17.3154 33.0795 18.5068 32.9524 19.6798 32.7202L21.0598 31.8804C21.0598 31.8804 20.0598 31.47 19.6798 28.98C19.6299 28.4546 19.4841 27.9431 19.2498 27.4702C18.6876 26.3673 17.7362 25.5122 16.5798 25.0703C17.3627 25.5959 17.9389 26.377 18.2098 27.2803C18.338 27.8712 18.3718 28.4786 18.3098 29.0801C18.3098 29.3601 18.2398 29.58 18.2098 29.75C17.9504 30.0655 17.6733 30.3659 17.3798 30.6499C17.0995 30.9156 16.8022 31.163 16.4898 31.3901C15.8635 31.677 15.1779 31.8108 14.4898 31.7803C14.152 31.7662 13.8168 31.716 13.4898 31.6304C13.4898 31.3704 13.5498 31.1204 13.5898 30.8604C13.5898 30.8604 8.80977 31.0703 9.05977 36.7603" fill="#FBB03A"/>
</g>
<defs>
<clipPath id="clip0_2368_1469">
<rect width="268.61" height="51.01" fill="white"/>
</clipPath>
</defs>
</svg>
