<svg width="1367" height="623" viewBox="0 0 1367 623" fill="none" xmlns="http://www.w3.org/2000/svg">
<g clip-path="url(#clip0_2362_1435)">
<path d="M1366 4H0V619.18H1366V4Z" fill="url(#paint0_linear_2362_1435)"/>
<path d="M1366.34 29.49V39.8L683.17 260.34V250.02L1366.34 29.49Z" fill="#262626"/>
<path d="M683.17 250.02V260.34L0 39.8V29.49L683.17 250.02Z" fill="#262626"/>
<path d="M1366.34 56.59V66.89L683.17 287.44V277.12L1366.34 56.59Z" fill="#262626"/>
<path d="M683.17 277.12V287.44L0 66.89V56.59L683.17 277.12Z" fill="#262626"/>
<path d="M1366.34 83.42V93.73L683.17 314.27V303.95L1366.34 83.42Z" fill="#262626"/>
<path d="M683.17 303.95V314.27L0 93.73V83.42L683.17 303.95Z" fill="#262626"/>
<path d="M1366.34 12.19V1.78003L683.17 1.89003V232.72L1366.34 12.19Z" fill="#262626"/>
<path d="M0 12.19V1.78003L683.17 1.89003V232.72L0 12.19Z" fill="#262626"/>
</g>
<defs>
<linearGradient id="paint0_linear_2362_1435" x1="683" y1="619.18" x2="683" y2="4" gradientUnits="userSpaceOnUse">
<stop stop-color="#262626"/>
<stop offset="0.15" stop-color="#2E2C27"/>
<stop offset="0.27" stop-color="#393328"/>
<stop offset="0.34" stop-color="#423929"/>
<stop offset="0.47" stop-color="#5C4A2B"/>
<stop offset="0.63" stop-color="#866430"/>
<stop offset="0.82" stop-color="#BF8935"/>
<stop offset="1" stop-color="#FBB03B"/>
</linearGradient>
<clipPath id="clip0_2362_1435">
<rect width="1366.34" height="622.61" fill="white"/>
</clipPath>
</defs>
</svg>
