<svg width="53" height="23" viewBox="0 0 53 23" fill="none" xmlns="http://www.w3.org/2000/svg">
    <g clip-path="url(#clip0_2359_1424)">
        <path
            d="M50.99 0H1.47C0.658141 0 0 0.658141 0 1.47V3.47C0 4.28186 0.658141 4.94 1.47 4.94H50.99C51.8019 4.94 52.46 4.28186 52.46 3.47V1.47C52.46 0.658141 51.8019 0 50.99 0Z"
            fill="white" />
        <path
            d="M50.99 8.57001H1.47C0.658141 8.57001 0 9.22815 0 10.04V12.04C0 12.8519 0.658141 13.51 1.47 13.51H50.99C51.8019 13.51 52.46 12.8519 52.46 12.04V10.04C52.46 9.22815 51.8019 8.57001 50.99 8.57001Z"
            fill="white" />
        <path
            d="M50.99 17.15H1.47C0.658141 17.15 0 17.8082 0 18.62V20.62C0 21.4319 0.658141 22.09 1.47 22.09H50.99C51.8019 22.09 52.46 21.4319 52.46 20.62V18.62C52.46 17.8082 51.8019 17.15 50.99 17.15Z"
            fill="white" />
    </g>
    <defs>
        <clipPath id="clip0_2359_1424">
            <rect width="52.46" height="22.09" fill="white" />
        </clipPath>
    </defs>
</svg>