<svg width="22" height="15" viewBox="0 0 22 15" fill="none" xmlns="http://www.w3.org/2000/svg">
<path fill-rule="evenodd" clip-rule="evenodd" d="M21.23 0.479968C21.2314 0.416559 21.2199 0.353762 21.1963 0.294909C21.1727 0.236056 21.1373 0.182529 21.0925 0.137683C21.0476 0.0928357 20.9942 0.057318 20.9353 0.0336786C20.8765 0.0100393 20.8134 -0.00137688 20.75 -1.27881e-05C20.6846 0.000368068 20.62 0.0137764 20.5599 0.039538C20.4998 0.0652996 20.4454 0.102796 20.4 0.14989L7.72003 13.27L0.830019 6.39012C0.737517 6.30361 0.616654 6.25369 0.490053 6.24999C0.361811 6.24996 0.238646 6.30038 0.147035 6.39012C0.0554244 6.47987 0.00261862 6.60175 1.43864e-06 6.72997C-0.000153278 6.79306 0.0121728 6.85571 0.0361953 6.91405C0.0602178 6.97239 0.0954802 7.02561 0.140016 7.0703L7.38001 14.29C7.4247 14.3346 7.47773 14.37 7.53607 14.394C7.59441 14.4181 7.65694 14.4303 7.72003 14.4302C7.78579 14.4323 7.85121 14.4199 7.91168 14.394C7.97216 14.3681 8.02618 14.3293 8.07001 14.2803L21.07 0.810046C21.153 0.720139 21.1994 0.602342 21.2 0.479968" fill="#FBB03B"/>
</svg>
