<svg width="1367" height="623" viewBox="0 0 1367 623" fill="none" xmlns="http://www.w3.org/2000/svg">
<g clip-path="url(#clip0_2362_1435)">
<path d="M1366.34 0H0V622.61H1366.34V0Z" fill="url(#paint0_linear_2362_1435)"/>
<path d="M1366.34 29.49V39.8L683.17 260.34V250.02L1366.34 29.49Z" fill="#262626"/>
<path d="M683.17 250.02V260.34L0 39.8V29.49L683.17 250.02Z" fill="#262626"/>
<path d="M1366.34 56.59V66.89L683.17 287.44V277.12L1366.34 56.59Z" fill="#262626"/>
<path d="M683.17 277.12V287.44L0 66.89V56.59L683.17 277.12Z" fill="#262626"/>
<path d="M1366.34 83.42V93.73L683.17 314.27V303.95L1366.34 83.42Z" fill="#262626"/>
<path d="M683.17 303.95V314.27L0 93.73V83.42L683.17 303.95Z" fill="#262626"/>
<path d="M1366.34 12.19V1.78003L683.17 1.89003V232.72L1366.34 12.19Z" fill="#262626"/>
<path d="M0 12.19V1.78003L683.17 1.89003V232.72L0 12.19Z" fill="#262626"/>
</g>
<defs>
<linearGradient id="paint0_linear_2362_1435" x1="683.17" y1="622.6" x2="683.17" y2="0" gradientUnits="userSpaceOnUse">
<stop stop-color="white"/>
<stop offset="0.23" stop-color="#C6C6C6"/>
<stop offset="0.61" stop-color="#717171"/>
<stop offset="0.87" stop-color="#3B3B3B"/>
<stop offset="1" stop-color="#262626"/>
</linearGradient>
<clipPath id="clip0_2362_1435">
<rect width="1366.34" height="622.61" fill="white"/>
</clipPath>
</defs>
</svg>
